<svg xmlns="http://www.w3.org/2000/svg" width="100%" height="100%" viewBox="0 0 1371 762" version="1.1">
	<path
		d="M 878.500 95.977 C 873.550 96.395, 865.225 97.455, 860 98.332 C 854.775 99.210, 847.575 100.402, 844 100.982 C 831.684 102.978, 813.341 107.585, 783.500 116.175 C 771.950 119.500, 761.150 122.566, 759.500 122.989 C 754.508 124.268, 720.951 135.523, 714 138.249 C 710.425 139.652, 703.675 142.222, 699 143.962 C 680.587 150.815, 651.684 162.708, 629 172.767 C 622.125 175.815, 612.175 180.213, 606.888 182.539 C 596.970 186.903, 551.200 210.179, 542.706 215.179 C 540.069 216.730, 537.716 218, 537.477 218 C 536.354 218, 501.323 239.530, 484.377 250.636 C 474.850 256.879, 448.881 276.251, 442.755 281.684 C 431.675 291.510, 415.562 308.409, 409.160 316.917 C 400.577 328.322, 395.746 337.977, 393.575 348.061 C 392.116 354.842, 392.099 356.337, 393.416 362.561 C 395.176 370.883, 396.979 374.720, 402.545 382 C 412.519 395.044, 430.624 406.200, 456.500 415.248 C 478.104 422.802, 509.525 432, 513.727 432 C 517.173 432, 521.319 428.320, 524.448 422.484 C 527.750 416.325, 527.802 416.353, 499 408.479 C 477.134 402.500, 461.442 397.702, 456.500 395.482 C 441.498 388.746, 427.675 381.346, 423.743 377.946 C 418.432 373.353, 414.210 366.830, 412.921 361.221 C 411.758 356.166, 414.298 346.138, 418.625 338.696 C 420.481 335.504, 422 332.467, 422 331.946 C 422 331.426, 422.420 331, 422.933 331 C 423.446 331, 424.151 330.099, 424.501 328.998 C 424.850 327.896, 431.518 320.568, 439.318 312.713 C 472.130 279.669, 514.362 251.389, 584 215.828 C 620.732 197.071, 675.506 173.036, 706 162.296 C 756.182 144.620, 768.502 140.638, 799.500 132.073 C 853.976 117.021, 899.039 110.641, 913.903 115.876 C 920.906 118.342, 923 120.247, 923 124.153 C 923 127.689, 918.752 134.947, 914.041 139.461 C 910.438 142.912, 910.210 145.186, 913.189 147.961 C 917.407 151.891, 920.904 150.751, 928.773 142.882 C 938.030 133.626, 940.500 128.691, 940.478 119.500 C 940.465 114.264, 939.968 111.744, 938.506 109.500 C 934.308 103.059, 928.786 99.459, 920.028 97.453 C 912.882 95.816, 890.024 95.004, 878.500 95.977 M 891.206 98.741 C 894.895 98.932, 901.195 98.934, 905.206 98.743 C 909.218 98.553, 906.200 98.396, 898.500 98.395 C 890.800 98.393, 887.518 98.549, 891.206 98.741 M 866 101 L 862.500 101.737 866.500 101.811 C 868.700 101.851, 872.300 101.512, 874.500 101.057 L 878.500 100.230 874 100.247 C 871.525 100.256, 867.925 100.595, 866 101 M 914.907 101.310 C 915.355 101.756, 917.921 101.974, 920.610 101.795 L 925.500 101.468 919.797 100.984 C 916.660 100.718, 914.460 100.865, 914.907 101.310 M 844.500 104.094 C 834.745 105.376, 825.622 107.132, 823.794 108.079 C 822.855 108.565, 820.258 109.255, 818.022 109.613 C 815.785 109.970, 813.730 110.628, 813.455 111.074 C 813.179 111.520, 810.826 112.198, 808.227 112.581 C 805.627 112.964, 803.275 113.602, 803 113.998 C 802.725 114.394, 800.250 115.178, 797.500 115.741 L 792.500 116.764 797.050 116.882 C 799.553 116.947, 802.052 116.548, 802.605 115.995 C 803.158 115.442, 806.709 114.740, 810.497 114.435 C 814.284 114.131, 817.797 113.625, 818.303 113.312 C 818.810 113, 819.606 113.362, 820.072 114.117 C 820.760 115.230, 821.184 115.131, 822.305 113.598 C 823.319 112.211, 824.379 111.878, 826.272 112.353 C 827.985 112.783, 829.377 112.480, 830.405 111.452 C 831.257 110.600, 834.327 109.480, 837.227 108.964 C 844.861 107.605, 857.997 104.336, 858.717 103.617 C 859.503 102.831, 852.260 103.074, 844.500 104.094 M 926.441 104.471 C 928.792 106.323, 930.315 106.451, 929.755 104.750 C 929.529 104.063, 928.254 103.374, 926.922 103.221 C 924.577 102.950, 924.561 102.990, 926.441 104.471 M 931 106.972 C 931 108.328, 932.777 109.170, 933.425 108.121 C 933.735 107.620, 933.316 106.952, 932.494 106.636 C 931.672 106.321, 931 106.472, 931 106.972 M 934 110.809 C 934 111.804, 934.661 113.491, 935.468 114.559 C 937.465 117.199, 937.488 125.599, 935.500 126.362 C 933.842 126.998, 933.410 131, 935 131 C 935.550 131, 936 130.155, 936 129.122 C 936 128.090, 936.675 126.685, 937.500 126 C 939.593 124.263, 939.444 115.942, 937.250 112.087 C 935.278 108.623, 934 108.120, 934 110.809 M 833 112 C 833 112.550, 833.477 113, 834.059 113 C 834.641 113, 834.840 112.550, 834.500 112 C 834.160 111.450, 833.684 111, 833.441 111 C 833.198 111, 833 111.450, 833 112 M 864.550 111.920 C 864.009 112.794, 884.990 112.281, 885.917 111.397 C 886.146 111.179, 881.560 111, 875.726 111 C 869.891 111, 864.862 111.414, 864.550 111.920 M 846.500 114.546 C 844.300 115.329, 839.518 115.977, 835.872 115.985 C 831.216 115.996, 828.875 116.446, 828 117.500 C 827.315 118.325, 825.535 119, 824.044 119 C 822.553 119, 821.053 119.281, 820.710 119.624 C 819.794 120.540, 807.106 124.705, 802.750 125.521 C 800.688 125.907, 799 126.638, 799 127.146 C 799 128.286, 809.266 127.063, 810.075 125.826 C 810.392 125.343, 812.992 124.670, 815.855 124.331 C 818.717 123.992, 821.297 123.329, 821.588 122.857 C 821.880 122.386, 823.486 122, 825.158 122 C 826.830 122, 829.616 121.362, 831.349 120.581 C 833.082 119.801, 837.177 118.969, 840.450 118.733 C 843.722 118.496, 846.572 117.784, 846.783 117.151 C 846.994 116.517, 849.262 115.968, 851.833 115.930 C 856.074 115.866, 861.898 114.378, 859.500 113.971 C 854.625 113.143, 849.848 113.355, 846.500 114.546 M 924.500 118 C 924.840 118.550, 925.316 119, 925.559 119 C 925.802 119, 926 118.550, 926 118 C 926 117.450, 925.523 117, 924.941 117 C 924.359 117, 924.160 117.450, 924.500 118 M 785 119 C 782.754 119.719, 782.876 119.811, 786.191 119.900 C 788.221 119.955, 790.160 119.550, 790.500 119 C 791.215 117.843, 788.612 117.843, 785 119 M 773.500 121.724 C 772.400 121.994, 771.028 122.597, 770.450 123.064 C 769.873 123.530, 767.501 124.216, 765.178 124.587 C 762.856 124.959, 760.714 125.654, 760.419 126.131 C 760.124 126.609, 758.896 127.015, 757.691 127.034 C 756.486 127.053, 753.700 127.937, 751.500 129 C 749.300 130.063, 746.514 130.947, 745.309 130.966 C 744.104 130.985, 742.864 131.411, 742.554 131.913 C 742.243 132.415, 740.194 133.129, 738 133.500 C 735.806 133.871, 733.781 134.546, 733.500 135 C 733.219 135.454, 731.194 136.129, 729 136.500 C 726.806 136.871, 724.757 137.585, 724.446 138.087 C 724.136 138.589, 722.659 139, 721.163 139 C 719.668 139, 717.557 139.610, 716.473 140.355 C 715.388 141.101, 711.575 142.714, 708 143.940 C 704.425 145.167, 701.050 146.530, 700.500 146.970 C 699.950 147.409, 698.034 148.083, 696.241 148.466 C 694.449 148.849, 693.238 149.576, 693.550 150.081 C 694.412 151.475, 697.076 151.132, 701.447 149.066 C 704.401 147.669, 706.020 147.437, 707.884 148.146 C 709.254 148.667, 712.189 148.960, 714.406 148.797 C 717.589 148.562, 718.512 148.868, 718.792 150.250 C 719.077 151.656, 718.445 152, 715.573 152 C 713.608 152, 712 152.473, 712 153.052 C 712 153.631, 710.650 154.575, 709 155.150 C 707.350 155.725, 706 156.559, 706 157.004 C 706 157.449, 703.773 158.119, 701.050 158.493 C 698.328 158.867, 695.573 159.810, 694.928 160.587 C 694.283 161.364, 692.685 162, 691.378 162 C 690.070 162, 689 162.486, 689 163.079 C 689 164.260, 695.125 163.313, 696 161.997 C 696.275 161.583, 698.525 160.910, 701 160.500 C 703.475 160.090, 705.725 159.471, 706 159.123 C 706.275 158.776, 709.200 157.666, 712.500 156.656 C 715.800 155.647, 719.850 154.202, 721.500 153.445 C 723.150 152.688, 725.850 151.766, 727.500 151.397 C 729.150 151.027, 730.950 150.388, 731.500 149.978 C 732.050 149.567, 733.962 148.918, 735.750 148.536 C 737.538 148.154, 739 147.478, 739 147.034 C 739 146.590, 741.025 145.923, 743.500 145.552 C 745.975 145.181, 748 144.506, 748 144.052 C 748 143.598, 750.025 142.923, 752.500 142.552 C 754.975 142.181, 757 141.495, 757 141.027 C 757 140.559, 758.913 139.860, 761.250 139.475 C 763.587 139.089, 765.950 138.426, 766.500 138 C 767.050 137.574, 769.413 136.911, 771.750 136.525 C 774.087 136.140, 776 135.471, 776 135.039 C 776 134.608, 778.298 134.034, 781.107 133.764 C 783.915 133.494, 786.503 132.824, 786.857 132.275 C 787.210 131.727, 789.638 130.963, 792.250 130.578 C 794.862 130.192, 797 129.455, 797 128.939 C 797 127.497, 788.699 127.826, 786.473 129.356 C 785.388 130.101, 782.083 131.024, 779.128 131.406 C 776.173 131.789, 773.104 132.753, 772.307 133.551 C 771.509 134.348, 769.983 135, 768.915 135 C 767.847 135, 766.191 135.410, 765.236 135.911 C 762.742 137.221, 754.575 140.028, 751.795 140.532 C 750.492 140.769, 746.743 141.901, 743.463 143.049 C 740.183 144.197, 735.925 145.504, 734 145.953 C 732.075 146.403, 728.655 147.453, 726.401 148.288 C 722.274 149.815, 719.510 149.364, 720.803 147.374 C 721.186 146.783, 722.175 146.038, 723 145.717 C 724.139 145.275, 723.961 144.971, 722.261 144.454 C 719.721 143.681, 720.184 142, 722.937 142 C 723.937 142, 725.305 141.337, 725.978 140.526 C 726.651 139.716, 728.731 138.766, 730.600 138.415 C 732.470 138.064, 734 137.249, 734 136.604 C 734 135.501, 740.757 133.617, 749.256 132.349 C 751.322 132.041, 753.261 131.386, 753.565 130.894 C 753.869 130.402, 756.061 130, 758.437 130 C 761.055 130, 763.245 129.410, 764 128.500 C 764.685 127.675, 766.710 127, 768.500 127 C 770.290 127, 772.269 126.381, 772.896 125.625 C 773.524 124.868, 775.803 123.967, 777.961 123.622 C 783.235 122.779, 784.209 120.967, 779.309 121.116 C 777.214 121.180, 774.600 121.453, 773.500 121.724 M 927 123.441 C 927 126.505, 927.570 126.753, 928.289 124.001 C 928.577 122.902, 928.404 121.750, 927.906 121.442 C 927.408 121.134, 927 122.034, 927 123.441 M 931.600 133.600 C 931.244 134.527, 931.178 135.511, 931.453 135.786 C 931.728 136.061, 932.244 135.527, 932.600 134.600 C 932.956 133.673, 933.022 132.689, 932.747 132.414 C 932.472 132.139, 931.956 132.673, 931.600 133.600 M 928 138 C 928 138.550, 928.450 139, 929 139 C 929.550 139, 930 138.550, 930 138 C 930 137.450, 929.550 137, 929 137 C 928.450 137, 928 137.450, 928 138 M 918 140.059 C 918 140.641, 918.450 140.840, 919 140.500 C 919.550 140.160, 920 139.684, 920 139.441 C 920 139.198, 919.550 139, 919 139 C 918.450 139, 918 139.477, 918 140.059 M 921.596 143.184 C 917.346 146.947, 916.839 148.795, 920.750 146.273 C 924.626 143.774, 927 141.686, 927 140.778 C 927 139.227, 925.120 140.064, 921.596 143.184 M 914.500 143 C 913.771 144.180, 914.717 146, 916.059 146 C 916.577 146, 917 145.100, 917 144 C 917 141.891, 915.545 141.309, 914.500 143 M 686.500 151.736 C 685.400 152.014, 683.612 152.861, 682.527 153.620 C 681.443 154.379, 679.755 155, 678.777 155 C 677.800 155, 677 155.450, 677 156 C 677 156.550, 676.212 157.003, 675.250 157.006 C 674.288 157.010, 672.211 157.685, 670.636 158.506 C 669.060 159.328, 667.348 160, 666.831 160 C 666.314 160, 663.777 160.933, 661.195 162.072 C 658.613 163.212, 654.925 164.817, 653 165.640 C 651.075 166.462, 648.600 167.527, 647.500 168.005 C 646.400 168.483, 644.487 169.158, 643.250 169.505 C 642.013 169.851, 641 170.504, 641 170.956 C 641 171.408, 639.366 172.084, 637.370 172.458 C 634.985 172.906, 634.078 173.478, 634.725 174.125 C 635.791 175.191, 641 174.273, 641 173.019 C 641 172.599, 642.800 171.968, 645 171.616 C 647.200 171.264, 649 170.532, 649 169.988 C 649 168.272, 655.198 168.893, 656.608 170.750 C 658.826 173.672, 658.321 176, 655.469 176 C 654.076 176, 652.678 176.675, 652.362 177.500 C 652.045 178.325, 650.966 179, 649.964 179 C 648.963 179, 647.544 179.599, 646.812 180.331 C 646.079 181.064, 644.247 181.972, 642.740 182.350 C 641.233 182.729, 640 183.528, 640 184.127 C 640 185.347, 645.140 184.391, 645.992 183.012 C 646.274 182.557, 648.191 181.867, 650.252 181.480 C 652.314 181.094, 654 180.428, 654 180 C 654 179.572, 655.575 178.927, 657.500 178.566 C 659.425 178.205, 661 177.480, 661 176.955 C 661 176.430, 661.800 176, 662.777 176 C 663.755 176, 665.443 175.382, 666.527 174.628 C 667.612 173.873, 669.962 172.937, 671.750 172.548 C 673.538 172.159, 675 171.477, 675 171.032 C 675 170.587, 676.621 169.918, 678.602 169.547 C 680.583 169.175, 681.911 168.578, 681.553 168.219 C 681.194 167.861, 682.611 167.037, 684.701 166.389 L 688.500 165.210 685.309 165.105 C 683.554 165.047, 681.840 165.450, 681.500 166 C 681.160 166.550, 679.896 167.003, 678.691 167.006 C 677.486 167.010, 675.211 167.685, 673.636 168.506 C 670.552 170.114, 666.796 170.461, 665.581 169.250 C 665.167 168.838, 662.991 168.500, 660.745 168.500 C 655.889 168.500, 655.087 166.636, 659.750 166.187 C 661.763 165.993, 663 165.327, 663 164.437 C 663 163.582, 663.984 163, 665.429 163 C 666.764 163, 668.532 162.325, 669.357 161.500 C 670.182 160.675, 671.831 160, 673.021 160 C 674.211 160, 676.329 159.100, 677.727 158 C 679.126 156.900, 681.222 155.986, 682.385 155.968 C 683.548 155.951, 685.374 155.276, 686.441 154.468 C 687.509 153.661, 689.421 153, 690.691 153 C 691.961 153, 693 152.550, 693 152 C 693 150.970, 690.019 150.849, 686.500 151.736 M 670.597 165.844 C 670.251 166.404, 670.455 167.163, 671.050 167.531 C 672.588 168.481, 673.580 167.180, 672.296 165.896 C 671.578 165.178, 671.019 165.161, 670.597 165.844 M 661.459 171.067 C 661.096 171.653, 661.040 172.373, 661.333 172.667 C 662.050 173.383, 664 172.121, 664 170.941 C 664 169.663, 662.274 169.748, 661.459 171.067 M 629 176 C 626.613 176.765, 626.644 176.805, 629.691 176.900 C 631.446 176.955, 633.160 176.550, 633.500 176 C 634.211 174.850, 632.591 174.850, 629 176 M 622.500 179 C 620.728 179.762, 620.813 179.867, 623.250 179.930 C 624.763 179.968, 626 179.550, 626 179 C 626 177.826, 625.231 177.826, 622.500 179 M 613.500 183 C 611.300 184.063, 608.938 184.947, 608.250 184.966 C 607.563 184.985, 607 185.450, 607 186 C 607 186.550, 606.261 187, 605.357 187 C 603.891 187, 589.253 193.747, 588 195 C 587.725 195.275, 585.250 196.625, 582.500 198 C 579.750 199.375, 577.350 200.838, 577.167 201.250 C 576.983 201.662, 576.308 202.014, 575.667 202.031 C 575.025 202.048, 572.250 203.169, 569.500 204.522 C 565.313 206.582, 564.927 206.983, 567.128 206.991 C 568.573 206.996, 570.315 206.325, 571 205.500 C 571.685 204.675, 572.990 204, 573.900 204 C 574.810 204, 579.075 202.200, 583.377 200 C 587.679 197.800, 592.231 196, 593.492 196 C 594.754 196, 596.045 195.325, 596.362 194.500 C 597.002 192.831, 603 192.379, 603 194 C 603 194.550, 603.675 195, 604.500 195 C 605.325 195, 606 194.550, 606 194 C 606 193.450, 605.288 193, 604.417 193 C 601.779 193, 603.459 190.523, 606.327 190.184 C 609.093 189.856, 609.935 191.304, 607.760 192.648 C 606.911 193.173, 607.245 193.586, 608.819 193.957 C 611.902 194.685, 611.692 196.422, 608.472 196.822 C 607.047 196.999, 605.635 197.787, 605.334 198.572 C 605.033 199.357, 604.228 200, 603.546 200 C 602.864 200, 601.268 200.900, 600 202 C 598.732 203.100, 596.918 204, 595.969 204 C 595.021 204, 593.685 204.675, 593 205.500 C 592.315 206.325, 590.937 207, 589.937 207 C 588.936 207, 587.857 207.422, 587.539 207.937 C 586.830 209.085, 575.137 214.676, 571.580 215.569 C 570.161 215.925, 569 216.618, 569 217.108 C 569 217.599, 567.843 218, 566.429 218 C 565.014 218, 563.178 218.679, 562.348 219.509 C 561.518 220.339, 560.364 220.725, 559.783 220.366 C 559.144 219.971, 559.667 218.970, 561.114 217.824 L 563.500 215.934 559.500 216.594 C 557.300 216.957, 554.790 217.871, 553.921 218.627 C 553.053 219.382, 551.646 220, 550.794 220 C 549.942 220, 548.685 220.675, 548 221.500 C 547.315 222.325, 546.162 223, 545.437 223 C 543.222 223, 542.712 225.024, 544.444 226.939 C 545.982 228.637, 545.889 228.916, 542.966 231.375 C 541.250 232.819, 539.431 234, 538.923 234 C 538.415 234, 538 234.480, 538 235.067 C 538 236.129, 541.981 235.370, 543 234.115 C 543.275 233.776, 547.100 231.732, 551.500 229.573 C 555.900 227.413, 559.725 225.373, 560 225.039 C 560.275 224.705, 562.862 223.328, 565.750 221.980 C 568.638 220.631, 571 219.220, 571 218.843 C 571 218.467, 572.350 217.862, 574 217.500 C 575.650 217.138, 577 216.427, 577 215.921 C 577 215.414, 577.643 215, 578.429 215 C 579.214 215, 580.473 214.384, 581.225 213.632 C 581.978 212.879, 583.585 211.949, 584.797 211.565 C 586.008 211.180, 587 210.446, 587 209.933 C 587 209.420, 587.868 209, 588.929 209 C 589.989 209, 591.463 208.394, 592.204 207.653 C 592.944 206.913, 595.226 205.993, 597.275 205.608 C 599.324 205.224, 601 204.516, 601 204.034 C 601 203.553, 602.350 202.862, 604 202.500 C 605.650 202.138, 607 201.427, 607 200.921 C 607 200.414, 607.661 200, 608.469 200 C 610.019 200, 618.147 196.087, 619 194.930 C 619.275 194.557, 620.962 193.934, 622.750 193.546 C 624.538 193.158, 626 192.463, 626 192 C 626 191.537, 627.350 190.862, 629 190.500 C 630.650 190.138, 632 189.466, 632 189.008 C 632 188.550, 633.843 187.864, 636.096 187.484 C 638.725 187.040, 639.847 186.447, 639.227 185.827 C 638.608 185.208, 636.874 185.482, 634.382 186.591 C 632.247 187.542, 630.275 188.401, 630 188.500 C 629.725 188.599, 627.827 189.428, 625.782 190.340 C 623.737 191.253, 621.176 192, 620.091 192 C 619.006 192, 617.840 192.450, 617.500 193 C 617.160 193.550, 615.753 194, 614.374 194 C 612.376 194, 611.986 193.618, 612.461 192.124 C 612.885 190.788, 612.472 190.095, 611.028 189.718 C 608.395 189.029, 608.398 187, 611.031 187 C 612.149 187, 613.322 186.325, 613.638 185.500 C 613.955 184.675, 614.755 184, 615.416 184 C 616.077 184, 617.491 183.339, 618.559 182.532 C 621.445 180.349, 618.407 180.630, 613.500 183 M 599 196 C 597.718 196.828, 597.754 196.972, 599.250 196.985 C 600.212 196.993, 601 196.550, 601 196 C 601 194.780, 600.887 194.780, 599 196 M 560.750 208.689 C 559.788 208.941, 559 209.528, 559 209.994 C 559 210.460, 557.650 211.138, 556 211.500 C 554.350 211.862, 552.995 212.461, 552.990 212.829 C 552.984 213.198, 550.509 214.598, 547.490 215.941 C 544.470 217.284, 542 218.697, 542 219.083 C 542 219.468, 540.875 220.066, 539.500 220.411 C 538.125 220.756, 537 221.480, 537 222.019 C 537 223.509, 539.666 223.191, 541.357 221.500 C 542.182 220.675, 544.014 220, 545.429 220 C 547.048 220, 548 219.444, 548 218.500 C 548 217.562, 548.948 217, 550.531 217 C 551.924 217, 553.322 216.325, 553.638 215.500 C 553.955 214.675, 555.261 214, 556.540 214 C 557.987 214, 559.105 213.245, 559.500 212 C 559.906 210.722, 561.013 210, 562.567 210 C 563.905 210, 565 209.550, 565 209 C 565 207.973, 563.820 207.887, 560.750 208.689 M 533 224 C 531.787 224.784, 531.931 224.972, 533.750 224.985 C 534.987 224.993, 536 224.550, 536 224 C 536 222.747, 534.939 222.747, 533 224 M 547.500 226 C 547.160 226.550, 547.584 227, 548.441 227 C 549.298 227, 550 226.550, 550 226 C 550 225.450, 549.577 225, 549.059 225 C 548.541 225, 547.840 225.450, 547.500 226 M 528 227 C 526.718 227.828, 526.754 227.972, 528.250 227.985 C 529.212 227.993, 530 227.550, 530 227 C 530 225.780, 529.887 225.780, 528 227 M 522.813 230.683 C 523.534 230.972, 524.397 230.936, 524.729 230.604 C 525.061 230.272, 524.471 230.036, 523.417 230.079 C 522.252 230.127, 522.015 230.364, 522.813 230.683 M 517.813 233.683 C 518.534 233.972, 519.397 233.936, 519.729 233.604 C 520.061 233.272, 519.471 233.036, 518.417 233.079 C 517.252 233.127, 517.015 233.364, 517.813 233.683 M 513 236 C 511.781 236.788, 511.910 236.972, 513.691 236.985 C 514.896 236.993, 516.160 236.550, 516.500 236 C 517.287 234.727, 514.970 234.727, 513 236 M 533.750 237.662 C 534.438 237.940, 535.563 237.940, 536.250 237.662 C 536.938 237.385, 536.375 237.158, 535 237.158 C 533.625 237.158, 533.063 237.385, 533.750 237.662 M 507.459 239.067 C 507.096 239.653, 507.005 240.339, 507.257 240.590 C 507.954 241.288, 511 239.907, 511 238.893 C 511 237.641, 508.257 237.776, 507.459 239.067 M 502.775 242.368 C 502.022 243.121, 500.415 244.051, 499.203 244.435 C 497.992 244.820, 497 245.451, 497 245.838 C 497 246.225, 494.975 247.648, 492.500 249 C 490.025 250.352, 488 251.756, 488 252.121 C 488 252.485, 486.875 253.066, 485.500 253.411 C 484.125 253.756, 483 254.480, 483 255.019 C 483 255.559, 482.532 256, 481.960 256 C 480.198 256, 471 262.901, 471 264.222 C 471 265.603, 475.045 265.047, 475.604 263.590 C 475.901 262.815, 477.200 261.916, 478.489 261.592 C 479.778 261.269, 482.678 259.231, 484.934 257.064 C 487.189 254.897, 489.885 252.854, 490.925 252.524 C 491.965 252.194, 493.068 251.266, 493.376 250.462 C 493.685 249.658, 494.626 249, 495.469 249 C 496.311 249, 497 248.550, 497 248 C 497 247.450, 497.679 247, 498.510 247 C 499.340 247, 500.790 246.100, 501.732 245 C 502.674 243.900, 504.019 243, 504.722 243 C 505.425 243, 506 242.550, 506 242 C 506 240.578, 504.380 240.763, 502.775 242.368 M 524.813 243.683 C 525.534 243.972, 526.397 243.936, 526.729 243.604 C 527.061 243.272, 526.471 243.036, 525.417 243.079 C 524.252 243.127, 524.015 243.364, 524.813 243.683 M 518 247 C 518 248.253, 519.061 248.253, 521 247 C 522.213 246.216, 522.069 246.028, 520.250 246.015 C 519.013 246.007, 518 246.450, 518 247 M 514 249.969 C 514 250.501, 514.675 250.678, 515.500 250.362 C 516.325 250.045, 517 249.609, 517 249.393 C 517 249.177, 516.325 249, 515.500 249 C 514.675 249, 514 249.436, 514 249.969 M 508 253 C 508 254.253, 509.061 254.253, 511 253 C 512.213 252.216, 512.069 252.028, 510.250 252.015 C 509.012 252.007, 508 252.450, 508 253 M 503 256 C 503 257.253, 504.061 257.253, 506 256 C 507.213 255.216, 507.069 255.028, 505.250 255.015 C 504.012 255.007, 503 255.450, 503 256 M 497.160 258.600 C 495.904 259.481, 494.003 259.973, 492.938 259.694 C 491.872 259.415, 491 259.604, 491 260.113 C 491 260.622, 489.840 260.747, 488.423 260.391 C 485.748 259.720, 481 261.586, 481 263.309 C 481 263.843, 480.212 264.877, 479.250 265.608 C 478.181 266.419, 477.987 266.949, 478.750 266.968 C 481.046 267.027, 480.037 269.868, 476.500 273.303 C 472.993 276.709, 472.264 278, 473.847 278 C 474.591 278, 476.097 276.907, 480.708 273.019 C 481.372 272.458, 482.316 272, 482.805 272 C 483.294 272, 484.775 271.108, 486.097 270.019 C 490.161 266.668, 490.383 266.508, 494.500 263.988 C 499.904 260.679, 501.998 258.805, 501.390 257.822 C 500.653 256.630, 499.731 256.799, 497.160 258.600 M 780.445 261.068 C 778.765 261.557, 776.458 262.979, 775.319 264.228 C 773.214 266.537, 767.692 282.419, 766.507 289.572 C 766.149 291.733, 765.473 294.400, 765.004 295.500 C 763.934 298.015, 761.545 306.811, 759.981 314 C 756.867 328.308, 752.861 344.906, 748.999 359.500 C 746.670 368.300, 744.164 378.320, 743.431 381.767 C 742.698 385.213, 741.800 388.514, 741.437 389.102 C 740.738 390.232, 738.535 399.295, 737.020 407.272 C 736.521 409.897, 735.673 413.497, 735.135 415.272 C 732.612 423.592, 731 429.812, 731 431.223 C 731 432.722, 729.398 438.709, 726.511 448 C 725.742 450.475, 723.907 458.125, 722.432 465 C 717.746 486.844, 717.760 486.800, 715.567 487.811 C 706.507 491.990, 659.972 509.056, 614 525.059 C 612.075 525.729, 609.375 526.720, 608 527.262 C 604.872 528.495, 588.094 534.560, 568.500 541.541 C 560.250 544.481, 546.774 549.358, 538.553 552.380 C 530.331 555.402, 523.212 557.631, 522.732 557.334 C 521.536 556.595, 522.749 550.075, 525.663 541.585 C 528.024 534.705, 530.208 526.221, 531.992 517 C 532.471 514.525, 535.192 503.500, 538.040 492.500 C 540.888 481.500, 543.785 469.800, 544.479 466.500 C 545.172 463.200, 547.219 455.100, 549.026 448.500 C 550.834 441.900, 552.864 434.025, 553.538 431 C 554.212 427.975, 555.892 421.450, 557.270 416.500 C 558.649 411.550, 560.329 404.800, 561.002 401.500 C 561.676 398.200, 562.820 393.475, 563.543 391 C 564.267 388.525, 565.160 384.925, 565.528 383 C 565.897 381.075, 566.855 377.250, 567.659 374.500 C 571.764 360.454, 575.803 345.278, 577.092 339.052 C 577.599 336.606, 578.419 333.231, 578.915 331.552 C 581.211 323.773, 582.991 316.716, 584.981 307.500 C 586.168 302, 587.559 295.613, 588.070 293.307 C 590.382 282.885, 587.467 272.981, 581.161 269.833 C 576.368 267.439, 572.686 268.952, 570.050 274.396 C 568.923 276.725, 568 279.404, 568 280.347 C 568 281.291, 567.057 284.861, 565.905 288.282 C 564.753 291.702, 563.213 297.875, 562.484 302 C 561.136 309.632, 557.171 326.448, 554.585 335.500 C 553.800 338.250, 551.317 348.150, 549.068 357.500 C 546.820 366.850, 544.309 376.585, 543.490 379.134 C 542.670 381.683, 542 384.568, 542 385.546 C 542 387.317, 540.193 394.279, 537.422 403.185 C 536.620 405.762, 535.536 409.812, 535.012 412.185 C 534.489 414.558, 533.173 419.650, 532.088 423.500 C 531.003 427.350, 530.089 431.946, 530.058 433.713 C 530.026 435.480, 529.132 439.128, 528.071 441.819 C 527.010 444.511, 525.467 449.815, 524.641 453.606 C 523.816 457.398, 521.084 468.487, 518.570 478.248 C 516.057 488.010, 513.998 497.010, 513.996 498.248 C 513.993 499.487, 512.878 503.650, 511.517 507.500 C 510.156 511.350, 509.033 515.708, 509.021 517.185 C 509.009 518.662, 508.517 521.137, 507.926 522.685 C 507.336 524.233, 506.478 527.300, 506.020 529.500 C 505.562 531.700, 504.239 537.550, 503.079 542.500 C 501.919 547.450, 500.526 553.750, 499.982 556.500 C 498.212 565.456, 497.201 566.910, 490.599 569.998 C 487.244 571.566, 482.025 573.616, 479 574.554 C 469.897 577.374, 457.866 581.649, 451.500 584.324 C 444.211 587.388, 429.251 593.098, 410.500 599.974 C 397.415 604.773, 384.566 609.723, 374 614.035 C 362.073 618.903, 310.563 639.258, 303.500 641.895 C 293.185 645.746, 279.262 651.260, 260.500 658.925 C 252.250 662.296, 236.950 668.438, 226.500 672.575 C 216.050 676.712, 206.150 680.701, 204.500 681.440 C 202.850 682.179, 198.902 683.957, 195.726 685.389 C 192.550 686.822, 187.292 689.114, 184.041 690.483 C 170.848 696.035, 166.839 699.768, 168.488 704.962 C 170.361 710.862, 175.932 712.321, 185.312 709.366 C 190.150 707.842, 224.593 694.456, 231.433 691.442 C 238.561 688.300, 286.160 669.407, 311.500 659.661 C 320.850 656.065, 335.700 650.146, 344.500 646.509 C 362.541 639.052, 389.292 628.380, 414.500 618.583 C 423.850 614.949, 433.525 611.093, 436 610.015 C 450.595 603.657, 481.408 592.374, 493 589.144 C 494.925 588.607, 501.225 586.308, 507 584.035 C 512.775 581.762, 524.250 577.467, 532.500 574.492 C 560.072 564.548, 572.483 559.990, 574.500 559.069 C 575.600 558.566, 584.375 555.369, 594 551.964 C 603.625 548.559, 615.550 544.270, 620.500 542.433 C 641.989 534.456, 665.142 526.267, 687.344 518.790 C 708.260 511.746, 711.367 510.939, 712.649 512.221 C 714.934 514.505, 713.420 523.169, 710.084 526.906 C 707.016 530.342, 702.658 544.310, 698.510 564 C 697.641 568.125, 696.308 573.525, 695.548 576 C 694.275 580.147, 692.501 587.537, 687.027 611.500 C 685.896 616.450, 684.545 622.300, 684.024 624.500 C 683.503 626.700, 682.594 630.750, 682.002 633.500 C 681.411 636.250, 680.224 641.425, 679.365 645 C 678.505 648.575, 677.436 653.300, 676.990 655.500 C 674.431 668.119, 671.874 679.170, 670.395 684 C 669.468 687.025, 668.522 693.838, 668.291 699.141 L 667.872 708.781 671.781 712.891 C 673.931 715.151, 676.548 716.997, 677.595 716.993 C 680.829 716.982, 684.663 713.788, 704.813 694.321 C 736.001 664.190, 750.670 645.893, 762.787 622.010 C 769.765 608.255, 771.560 602.723, 773.562 588.804 C 774.917 579.384, 775.019 575.886, 774.116 569.874 C 772.086 556.377, 771.344 553.550, 767.981 546.500 C 764.163 538.494, 753.611 522.386, 751.748 521.718 C 749.750 521.001, 747.557 522.589, 744.550 526.928 C 741.250 531.690, 741.474 534.624, 745.642 541.221 C 747.128 543.575, 749.672 549.100, 751.295 553.500 C 753.835 560.390, 754.312 563.309, 754.732 574.535 C 755.172 586.308, 754.966 588.534, 752.604 597.535 C 749.104 610.870, 742.584 623.678, 732.655 636.722 C 721.678 651.141, 721.213 651.681, 708.105 665.193 C 697.341 676.289, 693.977 678.539, 695.482 673.637 C 695.843 672.462, 696.760 668.575, 697.520 665 C 698.856 658.718, 700.070 653.302, 703.465 638.500 C 704.348 634.650, 705.737 628.575, 706.552 625 C 709.004 614.238, 710.990 605.833, 712.578 599.500 C 713.405 596.200, 714.442 591.700, 714.884 589.500 C 715.325 587.300, 716.185 583.700, 716.794 581.500 C 717.404 579.300, 719.288 571.200, 720.983 563.500 C 722.677 555.800, 724.727 547.250, 725.538 544.500 C 726.349 541.750, 727.464 536.490, 728.016 532.811 C 728.568 529.132, 729.829 524.182, 730.819 521.811 C 731.809 519.440, 733.422 514.575, 734.403 511 C 735.384 507.425, 736.482 503.914, 736.843 503.197 C 737.204 502.481, 740.650 500.759, 744.500 499.371 C 764.297 492.235, 769.963 490.226, 787 484.305 C 862.274 458.143, 881.373 451.525, 911 441.340 C 975.570 419.141, 1064.531 389.107, 1110 374.156 C 1123.475 369.725, 1145.075 362.439, 1158 357.966 C 1180.118 350.310, 1220.571 336.762, 1247.500 327.990 C 1273.157 319.633, 1303.318 309.082, 1304.268 308.132 C 1305.899 306.501, 1304.253 304, 1301.550 304 C 1299.085 304, 1280.381 307.979, 1272.500 310.180 C 1270.300 310.794, 1266.925 311.627, 1265 312.030 C 1263.075 312.433, 1254.300 314.884, 1245.500 317.476 C 1236.700 320.068, 1223.200 323.912, 1215.500 326.017 C 1207.800 328.123, 1194.750 331.918, 1186.500 334.451 C 1167.491 340.288, 1153.053 344.593, 1131 351.003 C 1121.375 353.800, 1106.300 358.349, 1097.500 361.111 C 1088.700 363.873, 1078.125 367.193, 1074 368.488 C 1069.875 369.782, 1051.200 375.808, 1032.500 381.878 C 1013.800 387.948, 994 394.328, 988.500 396.056 C 983 397.784, 965.900 403.400, 950.500 408.537 C 914.858 420.426, 916.386 419.907, 910.500 422.106 C 907.750 423.133, 887.725 430.009, 866 437.385 C 810.763 456.139, 784.998 465.059, 752.042 476.838 C 747.390 478.500, 743.227 479.640, 742.792 479.371 C 741.293 478.445, 742.009 473.532, 745.391 461.531 C 747.257 454.914, 749.709 445.675, 750.841 441 C 752.974 432.186, 756.300 419.349, 760.685 403 C 762.086 397.775, 764.113 390.125, 765.190 386 C 766.266 381.875, 767.762 376.250, 768.515 373.500 C 769.268 370.750, 770.574 365.800, 771.417 362.500 C 772.261 359.200, 774.687 350.425, 776.810 343 C 781.354 327.107, 782.821 321.749, 783.929 317 C 784.379 315.075, 785.752 309.900, 786.982 305.500 C 791.371 289.798, 792.243 285.383, 792.694 276.575 C 793.222 266.271, 792.202 263.402, 787.282 261.345 C 785.512 260.605, 783.937 260.041, 783.782 260.090 C 783.627 260.140, 782.125 260.580, 780.445 261.068 M 784.789 265.276 C 786.594 267.197, 786.972 268.970, 787.214 276.663 C 787.451 284.203, 787.198 286.108, 785.750 287.716 C 784.624 288.965, 784 291.281, 784 294.206 C 784 296.708, 783.424 299.233, 782.720 299.817 C 782.016 300.402, 781.352 303.269, 781.245 306.190 C 781.066 311.062, 781.172 311.340, 782.525 309.559 C 783.336 308.491, 784 306.855, 784 305.923 C 784 304.991, 784.672 302.940, 785.494 301.364 C 786.315 299.789, 786.990 297.105, 786.994 295.399 C 787 292.098, 788.690 286.270, 790.205 284.326 C 790.708 283.680, 791.224 279.908, 791.351 275.944 C 791.568 269.197, 791.400 268.554, 788.715 265.869 C 785.142 262.296, 781.469 261.742, 784.789 265.276 M 468 266 C 466.718 266.828, 466.754 266.972, 468.250 266.985 C 469.212 266.993, 470 266.550, 470 266 C 470 264.780, 469.887 264.780, 468 266 M 481.583 265.866 C 481.152 266.563, 481.070 267.403, 481.400 267.733 C 482.295 268.628, 483.271 267.312, 482.787 265.862 C 482.449 264.846, 482.213 264.846, 481.583 265.866 M 777.459 266.067 C 776.383 267.808, 777.608 268.177, 778.980 266.524 C 779.769 265.574, 779.845 265, 779.181 265 C 778.597 265, 777.821 265.480, 777.459 266.067 M 461.406 270.499 C 459.149 272.439, 458.891 272.998, 460.250 272.999 C 461.212 272.999, 462 272.580, 462 272.067 C 462 271.554, 462.900 270.849, 464 270.500 C 465.100 270.151, 466 269.446, 466 268.933 C 466 267.356, 464.443 267.886, 461.406 270.499 M 774.750 271.577 C 774.337 271.993, 774.029 273.721, 774.063 275.417 C 774.125 278.432, 774.148 278.446, 775.101 276.062 C 776.172 273.381, 775.937 270.380, 774.750 271.577 M 575.750 272.662 C 576.438 272.940, 577.563 272.940, 578.250 272.662 C 578.938 272.385, 578.375 272.158, 577 272.158 C 575.625 272.158, 575.063 272.385, 575.750 272.662 M 456 275 C 454.718 275.828, 454.754 275.972, 456.250 275.985 C 457.212 275.993, 458 275.550, 458 275 C 458 273.780, 457.887 273.780, 456 275 M 448.042 280.960 C 443.634 284.873, 442.741 287.840, 447.030 284.322 C 453.217 279.246, 455.348 277, 453.973 277.001 C 453.163 277.002, 450.494 278.784, 448.042 280.960 M 469 280 C 469 280.550, 468.374 281, 467.609 281 C 466.845 281, 463.357 283.696, 459.859 286.992 C 456.362 290.288, 454.030 292.988, 454.679 292.992 C 455.327 292.996, 456.532 292.325, 457.357 291.500 C 458.182 290.675, 459.189 290, 459.595 290 C 460 290, 461.045 289.326, 461.916 288.503 C 462.787 287.680, 465.505 285.205, 467.956 283.003 C 470.959 280.305, 471.855 279, 470.706 279 C 469.768 279, 469 279.450, 469 280 M 771.123 283.500 C 768.900 288.489, 766.899 299.299, 767.996 300.396 C 768.836 301.236, 770.134 297.743, 770.271 294.274 C 770.288 293.848, 770.936 293.036, 771.711 292.470 C 772.705 291.743, 773.023 289.828, 772.790 285.970 L 772.461 280.500 771.123 283.500 M 441.500 287 C 441.160 287.550, 441.359 288, 441.941 288 C 442.523 288, 443 287.550, 443 287 C 443 286.450, 442.802 286, 442.559 286 C 442.316 286, 441.840 286.450, 441.500 287 M 438.500 290 C 438.160 290.550, 438.359 291, 438.941 291 C 439.523 291, 440 290.550, 440 290 C 440 289.450, 439.802 289, 439.559 289 C 439.316 289, 438.840 289.450, 438.500 290 M 583.750 290.332 C 583.337 291.339, 583 293.509, 583 295.153 C 583 296.798, 582.325 298.818, 581.500 299.643 C 579.933 301.210, 579.315 310.541, 580.841 309.598 C 582.116 308.810, 585.208 294.708, 584.831 291.402 C 584.560 289.028, 584.363 288.833, 583.750 290.332 M 435 293 C 433.718 293.828, 433.754 293.972, 435.250 293.985 C 436.212 293.993, 437 293.550, 437 293 C 437 291.780, 436.887 291.780, 435 293 M 451 295.059 C 451 295.641, 451.450 295.840, 452 295.500 C 452.550 295.160, 453 294.684, 453 294.441 C 453 294.198, 452.550 294, 452 294 C 451.450 294, 451 294.477, 451 295.059 M 431.500 296 C 431.160 296.550, 431.584 297, 432.441 297 C 433.298 297, 434 296.550, 434 296 C 434 295.450, 433.577 295, 433.059 295 C 432.541 295, 431.840 295.450, 431.500 296 M 448 298.059 C 448 298.641, 448.450 298.840, 449 298.500 C 449.550 298.160, 450 297.684, 450 297.441 C 450 297.198, 449.550 297, 449 297 C 448.450 297, 448 297.477, 448 298.059 M 427 300.500 C 425.056 302.569, 424.940 303, 426.326 303 C 427.247 303, 428 302.487, 428 301.860 C 428 301.233, 428.788 300.123, 429.750 299.392 C 430.712 298.661, 431.016 298.049, 430.424 298.032 C 429.833 298.014, 428.292 299.125, 427 300.500 M 439.645 305.089 C 435.990 308.437, 433.014 311.925, 433.032 312.839 C 433.061 314.345, 433.188 314.336, 434.392 312.750 C 435.123 311.788, 436.105 311, 436.574 311 C 437.594 311, 447 300.866, 447 299.766 C 447 298.451, 446.467 298.837, 439.645 305.089 M 423 305.559 C 423 306.416, 423.450 306.840, 424 306.500 C 424.550 306.160, 425 305.459, 425 304.941 C 425 304.423, 424.550 304, 424 304 C 423.450 304, 423 304.702, 423 305.559 M 420 308 C 420 308.550, 420.450 309, 421 309 C 421.550 309, 422 308.550, 422 308 C 422 307.450, 421.550 307, 421 307 C 420.450 307, 420 307.450, 420 308 M 765.079 308.583 C 765.127 309.748, 765.364 309.985, 765.683 309.188 C 765.972 308.466, 765.936 307.603, 765.604 307.271 C 765.272 306.939, 765.036 307.529, 765.079 308.583 M 417.500 311 C 417.160 311.550, 417.359 312, 417.941 312 C 418.523 312, 419 311.550, 419 311 C 419 310.450, 418.802 310, 418.559 310 C 418.316 310, 417.840 310.450, 417.500 311 M 1283.884 310.449 C 1283.638 310.696, 1279.400 311.848, 1274.468 313.010 C 1269.535 314.172, 1263.475 315.601, 1261 316.187 C 1258.525 316.772, 1256.241 317.657, 1255.925 318.152 C 1255.608 318.647, 1253.021 319.329, 1250.175 319.666 C 1247.329 320.003, 1245 320.615, 1245 321.026 C 1245 321.437, 1242.862 322.091, 1240.250 322.480 C 1237.638 322.869, 1235.050 323.534, 1234.500 323.957 C 1233.950 324.381, 1231.568 325.022, 1229.206 325.382 C 1226.845 325.743, 1224.145 326.455, 1223.206 326.964 C 1222.268 327.474, 1219.700 328.218, 1217.500 328.618 L 1213.500 329.346 1218 330.251 C 1223.800 331.416, 1230.403 331.290, 1230.832 330.004 C 1231.016 329.452, 1232.142 328.993, 1233.333 328.985 C 1236.113 328.965, 1238.429 327.503, 1237.657 326.255 C 1237.298 325.674, 1239.290 325.286, 1242.632 325.286 C 1246.016 325.286, 1248.509 324.794, 1248.979 324.034 C 1249.405 323.345, 1251.833 322.548, 1254.376 322.261 C 1256.919 321.974, 1259 321.354, 1259 320.882 C 1259 320.410, 1260.800 319.736, 1263 319.384 C 1265.200 319.032, 1267 318.403, 1267 317.986 C 1267 317.568, 1269.015 316.925, 1271.477 316.556 C 1273.939 316.187, 1276.184 315.511, 1276.466 315.056 C 1276.747 314.600, 1278.539 313.934, 1280.447 313.576 C 1282.355 313.218, 1285.172 312.270, 1286.708 311.469 L 1289.500 310.012 1286.917 310.006 C 1285.496 310.003, 1284.131 310.202, 1283.884 310.449 M 414 315.059 C 414 315.641, 414.450 315.840, 415 315.500 C 415.550 315.160, 416 314.684, 416 314.441 C 416 314.198, 415.550 314, 415 314 C 414.450 314, 414 314.477, 414 315.059 M 430 315.559 C 430 316.416, 430.450 316.840, 431 316.500 C 431.550 316.160, 432 315.459, 432 314.941 C 432 314.423, 431.550 314, 431 314 C 430.450 314, 430 314.702, 430 315.559 M 778.641 316.210 C 778.303 317.470, 778.021 319.388, 778.014 320.473 C 778 322.399, 778.034 322.397, 779.437 320.394 C 780.822 318.415, 781.002 315.669, 779.823 314.489 C 779.510 314.177, 778.978 314.951, 778.641 316.210 M 561.553 316.250 C 560.923 318.296, 561.272 321, 562.167 321 C 562.625 321, 563 319.650, 563 318 C 563 314.930, 562.241 314.013, 561.553 316.250 M 761.837 320.587 C 761.446 325.500, 762.384 327.426, 763.373 323.739 C 764.274 320.377, 764.120 316, 763.101 316 C 762.606 316, 762.037 318.064, 761.837 320.587 M 411.046 318.914 C 410.272 320.361, 410.257 321, 410.996 321 C 412.209 321, 413.529 318.195, 412.705 317.371 C 412.406 317.073, 411.660 317.767, 411.046 318.914 M 427 319.059 C 427 319.641, 427.450 319.840, 428 319.500 C 428.550 319.160, 429 318.684, 429 318.441 C 429 318.198, 428.550 318, 428 318 C 427.450 318, 427 318.477, 427 319.059 M 424.583 320.866 C 424.152 321.563, 424.070 322.403, 424.400 322.733 C 425.295 323.628, 426.271 322.312, 425.787 320.862 C 425.449 319.846, 425.213 319.846, 424.583 320.866 M 406.907 324.281 C 403.720 328.719, 399 337.937, 399 339.723 C 399 340.731, 398.310 342.540, 397.466 343.745 C 395.660 346.324, 395.243 361.869, 396.904 364.722 C 397.665 366.029, 397.947 363.650, 397.970 355.750 C 397.988 349.410, 398.402 345, 398.981 345 C 399.520 345, 400.233 343.762, 400.564 342.250 C 401.303 338.879, 404.060 333.001, 405.750 331.194 C 406.438 330.459, 407 329.407, 407 328.857 C 407 328.307, 407.675 327.182, 408.500 326.357 C 410.063 324.794, 410.551 321.977, 409.250 322.031 C 408.837 322.049, 407.783 323.061, 406.907 324.281 M 559.736 326.007 C 557.855 330.349, 557.331 338.532, 559 337.500 C 559.550 337.160, 560 334.939, 560 332.563 C 560 330.035, 560.594 327.752, 561.433 327.056 C 562.775 325.942, 563.235 322, 562.023 322 C 561.720 322, 560.691 323.803, 559.736 326.007 M 421 324.938 C 421 325.454, 419.650 327.355, 418 329.161 C 416.350 330.968, 415 333.190, 415 334.100 C 415 335.010, 414.325 336.315, 413.500 337 C 412.675 337.685, 411.986 338.977, 411.968 339.872 C 411.951 340.768, 411.276 342.374, 410.468 343.441 C 409.661 344.509, 409.014 347.434, 409.030 349.941 C 409.064 354.948, 410.235 354.032, 411.511 348 C 411.918 346.075, 412.532 344.275, 412.876 344 C 413.417 343.566, 421.922 327.221, 422.833 324.863 C 423.017 324.388, 422.679 324, 422.083 324 C 421.488 324, 421 324.422, 421 324.938 M 574.828 328.351 C 574.593 330.358, 574.709 332, 575.084 332 C 576.230 332, 576.957 327.745, 576.079 326.176 C 575.496 325.136, 575.128 325.775, 574.828 328.351 M 776.160 326.125 C 776.072 327.019, 775.745 329.269, 775.433 331.125 C 774.970 333.888, 775.072 334.179, 775.995 332.728 C 776.616 331.754, 776.943 329.504, 776.722 327.728 C 776.501 325.953, 776.248 325.231, 776.160 326.125 M 759.750 326.573 C 759.337 326.991, 759.014 329.621, 759.030 332.417 C 759.054 336.380, 759.287 337.112, 760.087 335.737 C 761.235 333.766, 760.926 325.380, 759.750 326.573 M 1225.543 327.931 C 1224.803 329.128, 1226.684 330.313, 1228.016 329.490 C 1229.135 328.799, 1228.400 327, 1227 327 C 1226.515 327, 1225.859 327.419, 1225.543 327.931 M 1205 332 C 1202.867 332.683, 1203.117 332.815, 1206.703 332.900 C 1209.015 332.955, 1212.008 333.502, 1213.355 334.116 C 1215.086 334.904, 1216.640 334.928, 1218.652 334.195 L 1221.500 333.158 1218.309 333.079 C 1216.554 333.036, 1214.840 332.550, 1214.500 332 C 1213.783 330.840, 1208.623 330.840, 1205 332 M 1197 335 C 1195.827 335.758, 1196.086 335.973, 1198.191 335.985 C 1199.671 335.993, 1201.160 335.550, 1201.500 335 C 1202.289 333.723, 1198.976 333.723, 1197 335 M 772.667 335.667 C 772.300 336.033, 771.986 338.171, 771.968 340.417 C 771.951 342.663, 771.276 345.374, 770.468 346.441 C 769.661 347.509, 768.984 350.209, 768.965 352.441 C 768.945 354.674, 768.286 357.625, 767.500 359 C 766.714 360.375, 766.111 363.525, 766.160 366 L 766.250 370.500 767.035 365.090 C 767.507 361.836, 768.454 359.325, 769.410 358.790 C 770.414 358.228, 771.002 356.538, 771.006 354.200 C 771.010 352.165, 771.616 349.344, 772.353 347.930 C 773.999 344.776, 775.396 335, 774.201 335 C 773.724 335, 773.033 335.300, 772.667 335.667 M 572.252 339.500 C 572.263 341.700, 572.468 342.482, 572.707 341.238 C 572.946 339.994, 572.937 338.194, 572.687 337.238 C 572.437 336.282, 572.241 337.300, 572.252 339.500 M 1206 337.014 C 1204.945 337.706, 1205.538 337.807, 1208 337.355 C 1212.313 336.564, 1213.126 335.995, 1209.917 336.015 C 1208.588 336.024, 1206.825 336.473, 1206 337.014 M 756.548 339.250 C 756.129 340.212, 756.129 341.788, 756.548 342.750 C 757.273 344.417, 757.329 344.417, 757.728 342.750 C 757.958 341.788, 757.958 340.212, 757.728 339.250 C 757.329 337.583, 757.273 337.583, 756.548 339.250 M 1199.269 339.693 C 1200.242 339.947, 1201.592 339.930, 1202.269 339.656 C 1202.946 339.382, 1202.150 339.175, 1200.500 339.195 C 1198.850 339.215, 1198.296 339.439, 1199.269 339.693 M 1179.813 340.683 C 1180.534 340.972, 1181.397 340.936, 1181.729 340.604 C 1182.061 340.272, 1181.471 340.036, 1180.417 340.079 C 1179.252 340.127, 1179.015 340.364, 1179.813 340.683 M 1175.813 341.683 C 1176.534 341.972, 1177.397 341.936, 1177.729 341.604 C 1178.061 341.272, 1177.471 341.036, 1176.417 341.079 C 1175.252 341.127, 1175.015 341.364, 1175.813 341.683 M 1167 343.652 C 1166.175 343.924, 1164.600 344.525, 1163.500 344.988 C 1162.400 345.451, 1159.700 346.278, 1157.500 346.825 C 1153.686 347.775, 1147.875 349.453, 1138 352.454 C 1133.818 353.725, 1133.721 353.827, 1136.624 353.911 C 1138.343 353.960, 1141.662 353.325, 1144 352.500 C 1146.338 351.675, 1149.802 351, 1151.697 351 C 1153.592 351, 1155.818 350.325, 1156.643 349.500 C 1157.468 348.675, 1159.313 348, 1160.743 348 C 1162.173 348, 1164.053 347.384, 1164.921 346.630 C 1165.790 345.877, 1167.850 344.788, 1169.500 344.209 C 1171.549 343.491, 1171.866 343.158, 1170.500 343.158 C 1169.400 343.158, 1167.825 343.380, 1167 343.652 M 1170.500 349 C 1167.952 350.095, 1170.581 350.095, 1174 349 C 1176.010 348.356, 1176.108 348.194, 1174.500 348.170 C 1173.400 348.154, 1171.600 348.527, 1170.500 349 M 1157.108 353.012 C 1150.330 355.449, 1149.330 356.464, 1154.492 355.665 C 1156.688 355.325, 1158.638 354.587, 1158.825 354.024 C 1159.013 353.461, 1160.142 352.968, 1161.333 352.930 C 1162.525 352.891, 1164.400 352.473, 1165.500 352 C 1169.752 350.173, 1162.605 351.035, 1157.108 353.012 M 1123.750 356.662 C 1124.438 356.940, 1125.563 356.940, 1126.250 356.662 C 1126.938 356.385, 1126.375 356.158, 1125 356.158 C 1123.625 356.158, 1123.063 356.385, 1123.750 356.662 M 1144 358 C 1142.667 358.862, 1142.667 358.960, 1144 358.885 C 1144.825 358.839, 1146.625 358.440, 1148 358 L 1150.500 357.199 1148 357.115 C 1146.625 357.069, 1144.825 357.467, 1144 358 M 1114.750 359.662 C 1115.438 359.940, 1116.563 359.940, 1117.250 359.662 C 1117.938 359.385, 1117.375 359.158, 1116 359.158 C 1114.625 359.158, 1114.063 359.385, 1114.750 359.662 M 1137.500 360 C 1135.728 360.762, 1135.813 360.867, 1138.250 360.930 C 1139.763 360.968, 1141 360.550, 1141 360 C 1141 358.826, 1140.231 358.826, 1137.500 360 M 409.195 362.500 C 409.215 364.150, 409.439 364.704, 409.693 363.731 C 409.947 362.758, 409.930 361.408, 409.656 360.731 C 409.382 360.054, 409.175 360.850, 409.195 362.500 M 1104.250 362.689 C 1105.213 362.941, 1106.787 362.941, 1107.750 362.689 C 1108.713 362.438, 1107.925 362.232, 1106 362.232 C 1104.075 362.232, 1103.287 362.438, 1104.250 362.689 M 1128.269 363.693 C 1129.242 363.947, 1130.592 363.930, 1131.269 363.656 C 1131.946 363.382, 1131.150 363.175, 1129.500 363.195 C 1127.850 363.215, 1127.296 363.439, 1128.269 363.693 M 1096.500 364.724 C 1095.400 364.994, 1094.050 365.566, 1093.500 365.995 C 1092.950 366.423, 1090.588 367.089, 1088.250 367.475 C 1085.912 367.860, 1084 368.525, 1084 368.952 C 1084 369.379, 1081.985 370.004, 1079.522 370.342 C 1077.059 370.680, 1074.246 371.392, 1073.272 371.925 C 1072.297 372.459, 1068.125 373.877, 1064 375.078 C 1059.875 376.279, 1056.050 377.594, 1055.500 378 C 1054.950 378.407, 1052.813 379.043, 1050.750 379.415 C 1048.688 379.787, 1047 380.520, 1047 381.045 C 1047 381.570, 1045.987 382.006, 1044.750 382.014 C 1041.220 382.035, 1037.969 383.140, 1038.570 384.114 C 1039.469 385.568, 1045.658 385.118, 1047 383.500 C 1047.685 382.675, 1049.202 381.985, 1050.372 381.966 C 1051.543 381.947, 1054.300 381.063, 1056.500 380 C 1058.700 378.937, 1061.261 378.053, 1062.191 378.034 C 1063.121 378.015, 1064.160 377.550, 1064.500 377 C 1064.840 376.450, 1067.084 376, 1069.488 376 C 1071.891 376, 1074.472 375.385, 1075.224 374.633 C 1075.976 373.882, 1078.145 373.024, 1080.045 372.727 C 1085.403 371.891, 1093.119 368.852, 1093.695 367.352 C 1093.988 366.590, 1095.669 366, 1097.548 366 C 1099.382 366, 1101.160 365.550, 1101.500 365 C 1102.135 363.972, 1100.030 363.856, 1096.500 364.724 M 1119.750 366.662 C 1120.438 366.940, 1121.563 366.940, 1122.250 366.662 C 1122.938 366.385, 1122.375 366.158, 1121 366.158 C 1119.625 366.158, 1119.063 366.385, 1119.750 366.662 M 750.158 369 C 750.158 370.375, 750.385 370.938, 750.662 370.250 C 750.940 369.563, 750.940 368.438, 750.662 367.750 C 750.385 367.063, 750.158 367.625, 750.158 369 M 1109.762 369.707 C 1111.006 369.946, 1112.806 369.937, 1113.762 369.687 C 1114.718 369.437, 1113.700 369.241, 1111.500 369.252 C 1109.300 369.263, 1108.518 369.468, 1109.762 369.707 M 1098.509 372.985 C 1098.129 373.600, 1099.139 373.734, 1101.200 373.341 C 1105.622 372.499, 1106.003 372, 1102.226 372 C 1100.516 372, 1098.844 372.443, 1098.509 372.985 M 562.667 375.667 C 562.300 376.033, 562 377.896, 562 379.806 C 562 381.816, 561.335 383.766, 560.421 384.434 C 559.355 385.213, 558.964 386.711, 559.218 389.044 L 559.593 392.500 560.872 389.500 C 562.303 386.144, 564.358 376.025, 563.735 375.402 C 563.514 375.181, 563.033 375.300, 562.667 375.667 M 1085 376.597 C 1082.525 377.423, 1079.600 378.484, 1078.500 378.956 C 1077.400 379.428, 1074.351 380.368, 1071.724 381.044 C 1069.098 381.721, 1066.709 382.663, 1066.415 383.137 C 1066.122 383.612, 1064.784 384, 1063.441 384 C 1062.098 384, 1061 384.490, 1061 385.088 C 1061 386.388, 1069.315 385.253, 1069.833 383.882 C 1070.017 383.397, 1071.367 382.997, 1072.833 382.994 C 1074.300 382.990, 1076.707 382.358, 1078.183 381.588 C 1079.658 380.818, 1082.246 379.885, 1083.933 379.515 C 1085.620 379.144, 1087 378.427, 1087 377.921 C 1087 377.414, 1088.237 376.968, 1089.750 376.930 C 1091.263 376.891, 1093.400 376.473, 1094.500 376 C 1098.137 374.437, 1089.928 374.953, 1085 376.597 M 747 380.441 C 747 382.884, 746.567 385.150, 746.037 385.477 C 744.445 386.461, 743.058 392.987, 743.944 395.325 C 744.622 397.117, 744.901 396.619, 745.522 392.500 C 745.936 389.750, 746.889 386.612, 747.638 385.527 C 749.210 383.250, 749.486 376, 748 376 C 747.450 376, 747 377.998, 747 380.441 M 763 379 C 763 379.550, 763.450 380, 764 380 C 764.550 380, 765 379.550, 765 379 C 765 378.450, 764.550 378, 764 378 C 763.450 378, 763 378.450, 763 379 M 546.035 381.934 C 545.466 382.998, 545 384.954, 545 386.281 C 545 387.607, 544.308 390.079, 543.463 391.774 C 542.544 393.616, 542.185 395.887, 542.569 397.421 C 543.528 401.240, 545 399.500, 545 394.548 C 545 391.603, 545.485 390.028, 546.511 389.634 C 547.610 389.212, 547.951 387.820, 547.761 384.532 C 547.618 382.045, 547.403 380.008, 547.285 380.005 C 547.167 380.002, 546.605 380.870, 546.035 381.934 M 424.813 383.683 C 425.534 383.972, 426.397 383.936, 426.729 383.604 C 427.061 383.272, 426.471 383.036, 425.417 383.079 C 424.252 383.127, 424.015 383.364, 424.813 383.683 M 1034.191 384.930 C 1030.982 385.722, 1031.487 387.578, 1034.796 387.153 C 1038.046 386.735, 1038.074 386.715, 1037.196 385.401 C 1036.813 384.829, 1035.461 384.617, 1034.191 384.930 M 427 386 C 427 386.550, 427.689 387, 428.531 387 C 429.374 387, 430.306 387.634, 430.604 388.410 C 430.901 389.185, 432.292 390.107, 433.693 390.459 C 435.095 390.811, 436.854 391.711, 437.603 392.460 C 438.352 393.209, 439.911 393.575, 441.067 393.272 C 442.663 392.855, 442.848 392.519, 441.835 391.877 C 441.101 391.411, 439.712 391.024, 438.750 391.015 C 437.788 391.007, 437 390.580, 437 390.067 C 437 389.554, 436.008 388.820, 434.797 388.435 C 433.585 388.051, 431.978 387.121, 431.225 386.368 C 429.633 384.775, 427 384.546, 427 386 M 411.500 388 C 411.840 388.550, 412.316 389, 412.559 389 C 412.802 389, 413 388.550, 413 388 C 413 387.450, 412.523 387, 411.941 387 C 411.359 387, 411.160 387.450, 411.500 388 M 760.063 389.950 C 760.020 392.318, 760.323 393.077, 761.030 392.370 C 761.713 391.687, 761.734 390.522, 761.094 388.920 C 760.185 386.646, 760.123 386.708, 760.063 389.950 M 1053.713 388.113 C 1054.502 388.902, 1055.649 388.925, 1057.662 388.191 C 1060.468 387.169, 1060.456 387.157, 1056.550 387.079 C 1053.650 387.021, 1052.896 387.296, 1053.713 388.113 M 1021 389 C 1018.962 389.653, 1019.379 389.819, 1023.250 389.900 C 1025.862 389.955, 1028 389.550, 1028 389 C 1028 387.843, 1024.614 387.843, 1021 389 M 1046.134 389.632 C 1044.282 390.440, 1042.956 391.289, 1043.186 391.520 C 1044.107 392.440, 1050.913 390.668, 1051.408 389.379 C 1052.067 387.661, 1050.477 387.737, 1046.134 389.632 M 414 389.878 C 414 390.495, 414.358 391, 414.797 391 C 415.564 391, 417.750 392.550, 422.201 396.250 C 423.359 397.212, 424.875 398, 425.570 398 C 426.265 398, 426.983 398.358, 427.167 398.795 C 427.646 399.939, 435.779 404, 437.590 404 C 439.582 404, 438.402 402.136, 435.653 400.941 C 434.469 400.426, 432.712 399.554, 431.750 399.002 C 427.890 396.791, 426.333 395.951, 422.500 394.008 C 420.300 392.892, 417.488 391.255, 416.250 390.368 C 414.878 389.385, 414 389.194, 414 389.878 M 1012.813 392.683 C 1013.534 392.972, 1014.397 392.936, 1014.729 392.604 C 1015.061 392.272, 1014.471 392.036, 1013.417 392.079 C 1012.252 392.127, 1012.015 392.364, 1012.813 392.683 M 556.775 395.124 C 555.870 399.383, 555.905 405.177, 556.832 404.604 C 558.185 403.768, 559.172 396.129, 558.160 394.322 C 557.431 393.020, 557.193 393.158, 556.775 395.124 M 444.442 395.094 C 444.134 395.592, 445.034 396, 446.441 396 C 449.505 396, 449.753 395.430, 447.001 394.711 C 445.902 394.423, 444.750 394.596, 444.442 395.094 M 1002 395 C 999.003 395.960, 999.251 396.095, 1004.750 396.498 C 1007.882 396.728, 1009 396.441, 1009 395.405 C 1009 393.874, 1006.049 393.703, 1002 395 M 757.070 397.691 C 757.109 398.136, 757.527 399.400, 758 400.500 C 758.829 402.428, 758.862 402.421, 758.930 400.309 C 758.968 399.104, 758.550 397.840, 758 397.500 C 757.450 397.160, 757.032 397.246, 757.070 397.691 M 994 398 C 992.758 398.803, 992.844 398.969, 994.500 398.969 C 995.600 398.969, 997.175 398.533, 998 398 C 999.242 397.197, 999.156 397.031, 997.500 397.031 C 996.400 397.031, 994.825 397.467, 994 398 M 452.813 398.683 C 453.534 398.972, 454.397 398.936, 454.729 398.604 C 455.061 398.272, 454.471 398.036, 453.417 398.079 C 452.252 398.127, 452.015 398.364, 452.813 398.683 M 1018.500 400 C 1018.160 400.550, 1018.557 401, 1019.382 401 C 1020.207 401, 1021.160 400.550, 1021.500 400 C 1021.840 399.450, 1021.443 399, 1020.618 399 C 1019.793 399, 1018.840 399.450, 1018.500 400 M 1012.500 401 C 1012.160 401.550, 1010.896 402.014, 1009.691 402.032 C 1008.486 402.049, 1006.626 402.724, 1005.559 403.532 C 1004.491 404.339, 1002.714 405, 1001.609 405 C 1000.362 405, 999.960 405.350, 1000.550 405.923 C 1001.632 406.974, 1007 406.182, 1007 404.971 C 1007 404.534, 1008.800 403.872, 1011 403.500 C 1013.459 403.085, 1015 402.280, 1015 401.412 C 1015 399.786, 1013.412 399.524, 1012.500 401 M 540.750 402.572 C 540.337 402.991, 540.014 404.721, 540.030 406.417 C 540.056 409.027, 540.220 409.227, 541.096 407.721 C 542.239 405.757, 541.944 401.359, 540.750 402.572 M 974.500 404 C 971.514 404.760, 971.518 404.764, 975.250 404.882 C 977.313 404.947, 979 404.550, 979 404 C 979 402.898, 978.830 402.898, 974.500 404 M 472.813 404.683 C 473.534 404.972, 474.397 404.936, 474.729 404.604 C 475.061 404.272, 474.471 404.036, 473.417 404.079 C 472.252 404.127, 472.015 404.364, 472.813 404.683 M 439 405.387 C 439 405.599, 440.350 405.971, 442 406.213 C 443.650 406.455, 445 406.282, 445 405.827 C 445 405.372, 443.650 405, 442 405 C 440.350 405, 439 405.174, 439 405.387 M 965.500 407 C 963.741 407.756, 963.838 407.868, 966.309 407.930 C 967.941 407.971, 968.859 407.581, 968.500 407 C 968.160 406.450, 967.796 406.032, 967.691 406.070 C 967.586 406.109, 966.600 406.527, 965.500 407 M 481.750 407.723 C 483.538 407.945, 485 408.512, 485 408.984 C 485 409.455, 486.350 410.138, 488 410.500 C 490.408 411.029, 491.006 411.686, 491.032 413.829 C 491.063 416.414, 491.112 416.436, 492.557 414.525 C 493.813 412.862, 494.360 412.744, 496.011 413.775 C 497.090 414.449, 499.014 415, 500.286 415 C 501.559 415, 503.027 415.385, 503.550 415.855 C 504.072 416.325, 507.875 417.503, 512 418.474 C 516.125 419.445, 519.787 420.693, 520.138 421.248 C 520.974 422.568, 523 421.288, 523 419.441 C 523 418.560, 522.001 418, 520.429 418 C 519.014 418, 517.182 417.325, 516.357 416.500 C 515.437 415.579, 512.985 415, 510.012 415 C 507.307 415, 505.001 414.502, 504.791 413.873 C 504.584 413.253, 502.072 412.521, 499.208 412.246 C 496.343 411.971, 494 411.353, 494 410.873 C 494 410.393, 492.682 410, 491.071 410 C 489.461 410, 487.468 409.325, 486.643 408.500 C 485.818 407.675, 483.648 407.072, 481.821 407.160 L 478.500 407.320 481.750 407.723 M 754 410 C 754 411.650, 754.450 413, 755 413 C 755.550 413, 756 411.650, 756 410 C 756 408.350, 755.550 407, 755 407 C 754.450 407, 754 408.350, 754 410 M 992.140 408.204 C 987.595 409.435, 988.728 410.233, 993.589 409.223 C 995.729 408.778, 997.034 408.162, 996.490 407.854 C 995.945 407.546, 993.988 407.703, 992.140 408.204 M 447 408.383 C 447 408.594, 448.125 408.982, 449.500 409.245 C 450.875 409.508, 452 409.335, 452 408.861 C 452 408.388, 450.875 408, 449.500 408 C 448.125 408, 447 408.173, 447 408.383 M 553.810 412.500 C 553.585 414.425, 553.761 416, 554.201 416 C 554.640 416, 555 414.425, 555 412.500 C 555 410.575, 554.824 409, 554.609 409 C 554.395 409, 554.035 410.575, 553.810 412.500 M 956.500 410 C 954.814 410.724, 955.001 410.870, 957.691 410.930 C 959.446 410.968, 961.160 410.550, 961.500 410 C 962.241 408.801, 959.291 408.801, 956.500 410 M 456.269 411.693 C 457.242 411.947, 458.592 411.930, 459.269 411.656 C 459.946 411.382, 459.150 411.175, 457.500 411.195 C 455.850 411.215, 455.296 411.439, 456.269 411.693 M 982.500 412 C 981.711 413.277, 985.024 413.277, 987 412 C 988.173 411.242, 987.914 411.027, 985.809 411.015 C 984.329 411.007, 982.840 411.450, 982.500 412 M 947.500 413 C 945.888 413.693, 946.216 413.873, 949.191 413.930 C 951.221 413.968, 953.160 413.550, 953.500 413 C 954.246 411.793, 950.308 411.793, 947.500 413 M 973.990 414.710 C 972.071 415.552, 969.150 416.591, 967.500 417.018 C 964.680 417.749, 964.755 417.801, 968.750 417.898 C 971.087 417.954, 973 417.563, 973 417.029 C 973 416.494, 974.449 415.682, 976.219 415.223 C 977.990 414.764, 978.998 414.117, 978.459 413.784 C 977.921 413.451, 975.910 413.868, 973.990 414.710 M 466.250 414.689 C 467.212 414.941, 468.788 414.941, 469.750 414.689 C 470.712 414.438, 469.925 414.232, 468 414.232 C 466.075 414.232, 465.288 414.438, 466.250 414.689 M 937.813 416.683 C 938.534 416.972, 939.397 416.936, 939.729 416.604 C 940.061 416.272, 939.471 416.036, 938.417 416.079 C 937.252 416.127, 937.015 416.364, 937.813 416.683 M 475 418 C 475.825 418.533, 477.738 418.976, 479.250 418.985 C 480.762 418.993, 482 419.430, 482 419.955 C 482 420.480, 483.688 421.213, 485.750 421.585 C 487.813 421.957, 489.950 422.610, 490.500 423.037 C 491.050 423.464, 493.750 424.142, 496.500 424.544 C 499.250 424.946, 502.388 425.889, 503.473 426.638 C 504.557 427.387, 507.145 428, 509.223 428 C 511.300 428, 513 428.450, 513 429 C 513 429.550, 513.675 430, 514.500 430 C 515.325 430, 516 429.277, 516 428.393 C 516 427.412, 515.444 426.999, 514.573 427.334 C 513.788 427.635, 512.649 427.282, 512.041 426.549 C 511.433 425.817, 509.713 424.980, 508.218 424.690 C 499.374 422.975, 489.017 420.028, 487.298 418.737 C 486.637 418.241, 485.212 418.115, 484.132 418.458 C 483.052 418.801, 481.879 418.613, 481.525 418.041 C 481.171 417.468, 479.221 417.007, 477.191 417.015 C 474.440 417.027, 473.882 417.277, 475 418 M 929.813 419.683 C 930.534 419.972, 931.397 419.936, 931.729 419.604 C 932.061 419.272, 931.471 419.036, 930.417 419.079 C 929.252 419.127, 929.015 419.364, 929.813 419.683 M 958.813 420.683 C 959.534 420.972, 960.397 420.936, 960.729 420.604 C 961.061 420.272, 960.471 420.036, 959.417 420.079 C 958.252 420.127, 958.015 420.364, 958.813 420.683 M 550.750 421.571 C 550.337 421.990, 550 423.923, 550 425.867 C 550 428.382, 550.309 429.091, 551.073 428.327 C 551.663 427.737, 552 425.804, 551.823 424.032 C 551.645 422.259, 551.163 421.152, 550.750 421.571 M 919.750 422.662 C 920.438 422.940, 921.563 422.940, 922.250 422.662 C 922.938 422.385, 922.375 422.158, 921 422.158 C 919.625 422.158, 919.063 422.385, 919.750 422.662 M 517.667 423.667 C 517.300 424.033, 517.014 425.046, 517.030 425.917 C 517.055 427.217, 517.251 427.174, 518.122 425.675 C 519.199 423.823, 518.887 422.447, 517.667 423.667 M 911.500 425 C 909.714 425.767, 909.788 425.867, 912.191 425.930 C 913.671 425.968, 915.160 425.550, 915.500 425 C 916.238 423.806, 914.278 423.806, 911.500 425 M 903.250 427.706 C 902.013 427.944, 901 428.558, 901 429.070 C 901 429.581, 899.987 430.006, 898.750 430.014 C 895.313 430.035, 891.963 431.130, 892.530 432.048 C 893.288 433.275, 900.379 431.901, 901.300 430.348 C 901.740 429.607, 903.427 429, 905.050 429 C 906.672 429, 908 428.550, 908 428 C 908 426.982, 907.249 426.936, 903.250 427.706 M 563.529 431.315 C 562.695 432.588, 561.739 435.627, 561.404 438.068 C 560.900 441.743, 561.147 442.823, 562.839 444.354 C 563.962 445.371, 573.546 448.888, 584.135 452.170 C 594.725 455.453, 604.293 458.622, 605.398 459.213 C 606.504 459.805, 609.454 460.863, 611.954 461.566 C 618.410 463.380, 636.684 470.447, 656.563 478.816 C 665.947 482.767, 674.180 486, 674.857 486 C 676.849 486, 688.885 478.742, 689.485 477.179 C 690.487 474.568, 690.487 474.568, 664.939 461.988 C 657.208 458.181, 622.364 445.714, 599.500 438.575 C 592.900 436.514, 583.424 433.516, 578.443 431.914 C 567.505 428.395, 565.495 428.314, 563.529 431.315 M 922.750 432.662 C 923.438 432.940, 924.563 432.940, 925.250 432.662 C 925.938 432.385, 925.375 432.158, 924 432.158 C 922.625 432.158, 922.063 432.385, 922.750 432.662 M 548 434.918 C 548 435.973, 547.727 437.548, 547.393 438.418 C 547.059 439.288, 547.235 440, 547.784 440 C 548.332 440, 548.965 438.425, 549.190 436.500 C 549.415 434.575, 549.239 433, 548.799 433 C 548.360 433, 548 433.863, 548 434.918 M 885.500 433.684 C 884.400 433.933, 882.150 434.726, 880.500 435.446 C 878.850 436.167, 876.825 437.001, 876 437.300 C 875.175 437.598, 876.132 437.878, 878.128 437.921 C 880.217 437.967, 882.283 437.364, 883 436.500 C 883.715 435.639, 885.896 435, 888.122 435 C 890.255 435, 892 434.550, 892 434 C 892 432.990, 889.177 432.853, 885.500 433.684 M 564.607 435.582 C 563.713 437.911, 563.869 443, 564.833 443 C 565.292 443, 565.667 440.975, 565.667 438.500 C 565.667 433.594, 565.522 433.196, 564.607 435.582 M 910.500 436 C 909.754 437.207, 913.692 437.207, 916.500 436 C 918.112 435.307, 917.784 435.127, 914.809 435.070 C 912.779 435.032, 910.840 435.450, 910.500 436 M 577 436.889 C 577 437.377, 578.688 438.093, 580.750 438.478 C 582.813 438.864, 585.045 439.630, 585.712 440.181 C 587.194 441.405, 596.862 442.032, 597.533 440.946 C 597.799 440.517, 596.100 439.707, 593.758 439.146 C 591.416 438.585, 587.700 437.659, 585.500 437.087 C 580.544 435.799, 577 435.717, 577 436.889 M 732.729 438.604 C 732.328 439.005, 732 440.023, 732 440.867 C 732 441.992, 732.296 442.104, 733.112 441.288 C 733.724 440.676, 734.053 439.658, 733.842 439.025 C 733.631 438.392, 733.130 438.203, 732.729 438.604 M 902.500 439 C 901.713 440.273, 904.030 440.273, 906 439 C 907.219 438.212, 907.090 438.028, 905.309 438.015 C 904.104 438.007, 902.840 438.450, 902.500 439 M 867.750 440.662 C 868.438 440.940, 869.563 440.940, 870.250 440.662 C 870.938 440.385, 870.375 440.158, 869 440.158 C 867.625 440.158, 867.063 440.385, 867.750 440.662 M 897.269 441.693 C 898.242 441.947, 899.592 441.930, 900.269 441.656 C 900.946 441.382, 900.150 441.175, 898.500 441.195 C 896.850 441.215, 896.296 441.439, 897.269 441.693 M 598.500 443 C 598.840 443.550, 600.554 443.968, 602.309 443.930 C 604.999 443.870, 605.186 443.724, 603.500 443 C 600.709 441.801, 597.759 441.801, 598.500 443 M 862.507 442.989 C 862.157 443.555, 862.558 443.723, 863.448 443.382 C 865.180 442.717, 865.497 442, 864.059 442 C 863.541 442, 862.843 442.445, 862.507 442.989 M 858.813 443.683 C 859.534 443.972, 860.397 443.936, 860.729 443.604 C 861.061 443.272, 860.471 443.036, 859.417 443.079 C 858.252 443.127, 858.015 443.364, 858.813 443.683 M 572 445 C 575.624 446.161, 580 446.161, 580 445 C 580 444.448, 577.650 444.045, 574.750 444.100 C 570.619 444.178, 570.033 444.370, 572 445 M 605.704 446.104 C 606.495 446.895, 607.330 446.903, 608.654 446.134 C 610.272 445.193, 610.136 445.057, 607.550 445.030 C 605.399 445.008, 604.899 445.299, 605.704 446.104 M 851 446 C 850.099 446.582, 849.975 446.975, 850.691 446.985 C 851.346 446.993, 852.160 446.550, 852.500 446 C 853.267 444.758, 852.921 444.758, 851 446 M 584 446.956 L 580.500 447.649 583.500 448.462 C 585.150 448.910, 586.950 449.622, 587.500 450.044 C 589.319 451.442, 598 452.326, 598 451.114 C 598 450.501, 596.936 450, 595.635 450 C 594.334 450, 592.126 449.100, 590.727 448 C 589.329 446.900, 588.031 446.059, 587.842 446.132 C 587.654 446.204, 585.925 446.575, 584 446.956 M 544 449.500 C 544 450.875, 544.450 452, 545 452 C 545.550 452, 546 450.875, 546 449.500 C 546 448.125, 545.550 447, 545 447 C 544.450 447, 544 448.125, 544 449.500 M 618 449 C 618 449.550, 618.702 450, 619.559 450 C 620.416 450, 620.840 449.550, 620.500 449 C 620.160 448.450, 619.459 448, 618.941 448 C 618.423 448, 618 448.450, 618 449 M 841 449 C 838.613 449.765, 838.644 449.805, 841.691 449.900 C 843.446 449.955, 845.160 449.550, 845.500 449 C 846.211 447.850, 844.591 447.850, 841 449 M 729.729 449.604 C 729.328 450.005, 729 451.023, 729 451.867 C 729 452.992, 729.296 453.104, 730.112 452.288 C 730.724 451.676, 731.053 450.658, 730.842 450.025 C 730.631 449.392, 730.130 449.203, 729.729 449.604 M 742.427 455.940 C 742.019 459.551, 741.215 462.087, 740.378 462.409 C 739.620 462.699, 738.995 463.964, 738.988 465.219 C 738.982 466.473, 738.327 469.939, 737.534 472.920 C 736.741 475.900, 736.350 478.757, 736.666 479.269 C 737.299 480.293, 740.915 470.569, 740.967 467.700 C 740.985 466.711, 741.616 464.686, 742.370 463.200 C 743.938 460.110, 745.112 450, 743.903 450 C 743.461 450, 742.797 452.673, 742.427 455.940 M 528 453.059 C 528 454.191, 528.450 454.840, 529 454.500 C 529.550 454.160, 530 453.234, 530 452.441 C 530 451.648, 529.550 451, 529 451 C 528.450 451, 528 451.927, 528 453.059 M 831 452.247 C 829.625 452.863, 826.925 453.912, 825 454.578 L 821.500 455.790 825.750 455.895 C 828.908 455.973, 830 455.614, 830 454.500 C 830 453.417, 831.111 453, 834 453 C 836.200 453, 838 452.550, 838 452 C 838 450.693, 834.166 450.828, 831 452.247 M 628.813 452.683 C 629.534 452.972, 630.397 452.936, 630.729 452.604 C 631.061 452.272, 630.471 452.036, 629.417 452.079 C 628.252 452.127, 628.015 452.364, 628.813 452.683 M 600.250 453.689 C 601.212 453.941, 602.788 453.941, 603.750 453.689 C 604.712 453.438, 603.925 453.232, 602 453.232 C 600.075 453.232, 599.288 453.438, 600.250 453.689 M 541.844 454.502 C 541.484 455.053, 541.103 457.303, 540.997 459.502 C 540.700 465.710, 540.852 466.548, 542.057 465.343 C 542.639 464.761, 542.976 461.859, 542.807 458.893 C 542.638 455.927, 542.205 453.951, 541.844 454.502 M 635 455 C 635 455.550, 636.237 455.993, 637.750 455.985 C 639.893 455.973, 640.169 455.755, 639 455 C 637.043 453.736, 635 453.736, 635 455 M 608.083 456.356 C 609.208 457.318, 615 457.836, 615 456.975 C 615 456.439, 613.350 456, 611.333 456 C 609.317 456, 607.854 456.160, 608.083 456.356 M 853.269 456.693 C 854.242 456.947, 855.592 456.930, 856.269 456.656 C 856.946 456.382, 856.150 456.175, 854.500 456.195 C 852.850 456.215, 852.296 456.439, 853.269 456.693 M 643 458 C 643 458.550, 644.462 458.968, 646.250 458.930 C 648.974 458.871, 649.176 458.720, 647.500 458 C 644.737 456.813, 643 456.813, 643 458 M 815.500 458 C 813.814 458.724, 814.001 458.870, 816.691 458.930 C 818.446 458.968, 820.160 458.550, 820.500 458 C 821.241 456.801, 818.291 456.801, 815.500 458 M 618 460 C 619.976 461.277, 623.289 461.277, 622.500 460 C 622.160 459.450, 620.671 459.007, 619.191 459.015 C 617.086 459.027, 616.827 459.242, 618 460 M 841.500 460 C 840.703 461.290, 846.004 461.290, 848 460 C 849.118 459.277, 848.560 459.027, 845.809 459.015 C 843.779 459.007, 841.840 459.450, 841.500 460 M 525.684 461.382 C 525.308 462.362, 525.041 464.364, 525.090 465.832 C 525.174 468.319, 525.246 468.273, 526.143 465.158 C 527.182 461.546, 526.807 458.456, 525.684 461.382 M 649.500 461 C 649.840 461.550, 651.104 462.014, 652.309 462.032 C 653.514 462.049, 655.374 462.724, 656.441 463.532 C 657.509 464.339, 659.759 464.970, 661.441 464.932 L 664.500 464.865 662 463.796 C 660.625 463.209, 658.082 462.114, 656.349 461.364 C 652.670 459.772, 648.607 459.556, 649.500 461 M 808 461 C 806.718 461.828, 806.754 461.972, 808.250 461.985 C 809.212 461.993, 810 461.550, 810 461 C 810 459.780, 809.887 459.780, 808 461 M 623.480 462.033 C 623.151 462.565, 623.527 463, 624.316 463 C 625.105 463, 627.269 463.285, 629.125 463.632 C 631.375 464.054, 632.167 463.931, 631.500 463.264 C 630.039 461.804, 624.178 460.903, 623.480 462.033 M 641 463 C 641 463.550, 641.450 464, 642 464 C 642.550 464, 643 463.550, 643 463 C 643 462.450, 642.550 462, 642 462 C 641.450 462, 641 462.450, 641 463 M 834 462.827 C 834 463.282, 835.350 463.455, 837 463.213 C 838.650 462.971, 840 462.599, 840 462.387 C 840 462.174, 838.650 462, 837 462 C 835.350 462, 834 462.372, 834 462.827 M 633 466 C 634.965 467.270, 638 467.270, 638 466 C 638 465.450, 636.538 465.007, 634.750 465.015 C 632.284 465.027, 631.862 465.264, 633 466 M 647 465.872 C 647 466.352, 645.087 467.087, 642.750 467.505 L 638.500 468.266 642 469.393 C 643.925 470.012, 646.483 471.078, 647.684 471.760 C 648.886 472.442, 650.536 473, 651.351 473 C 652.166 473, 652.983 473.412, 653.167 473.916 C 653.681 475.330, 661 476.447, 661 475.111 C 661 474.500, 660.200 474, 659.223 474 C 658.245 474, 656.557 473.392, 655.473 472.649 C 654.388 471.906, 652.256 470.996, 650.737 470.627 C 648.394 470.057, 648.068 469.578, 648.595 467.478 C 648.977 465.957, 648.789 465, 648.108 465 C 647.499 465, 647 465.392, 647 465.872 M 827 466 C 827 467.174, 827.769 467.174, 830.500 466 C 832.272 465.238, 832.187 465.133, 829.750 465.070 C 828.237 465.032, 827 465.450, 827 466 M 665.500 467 C 665.840 467.550, 667.104 467.968, 668.309 467.930 C 670.421 467.862, 670.428 467.829, 668.500 467 C 665.748 465.817, 664.769 465.817, 665.500 467 M 538.675 473.342 C 538.221 476.005, 538.109 478.442, 538.425 478.758 C 539.621 479.954, 540.108 478.052, 539.809 473.357 L 539.500 468.500 538.675 473.342 M 780.269 470.693 C 781.242 470.947, 782.592 470.930, 783.269 470.656 C 783.946 470.382, 783.150 470.175, 781.500 470.195 C 779.850 470.215, 779.296 470.439, 780.269 470.693 M 771.028 472.735 C 769.669 472.989, 767.656 473.828, 766.556 474.599 C 765.455 475.369, 763.755 476, 762.777 476 C 761.800 476, 761 476.450, 761 477 C 761 477.550, 759.987 478.007, 758.750 478.015 C 755.954 478.034, 752.612 479.892, 755 480.100 C 758.003 480.361, 760.547 479.807, 762.715 478.418 C 763.933 477.638, 765.755 477, 766.765 477 C 767.774 477, 769.157 476.443, 769.838 475.762 C 770.520 475.080, 771.622 474.474, 772.288 474.414 C 772.955 474.354, 774.513 474.236, 775.750 474.152 C 776.987 474.069, 778 473.550, 778 473 C 778 471.987, 775.528 471.893, 771.028 472.735 M 522.063 476.050 C 522.123 479.292, 522.185 479.354, 523.094 477.080 C 523.734 475.478, 523.713 474.313, 523.030 473.630 C 522.323 472.923, 522.020 473.682, 522.063 476.050 M 683.750 476.662 C 684.438 476.940, 685.563 476.940, 686.250 476.662 C 686.938 476.385, 686.375 476.158, 685 476.158 C 683.625 476.158, 683.063 476.385, 683.750 476.662 M 662.813 477.683 C 663.534 477.972, 664.397 477.936, 664.729 477.604 C 665.061 477.272, 664.471 477.036, 663.417 477.079 C 662.252 477.127, 662.015 477.364, 662.813 477.683 M 789.500 478 C 788.802 479.129, 791.063 479.129, 795.500 478 C 798.334 477.279, 798.268 477.230, 794.309 477.118 C 792.004 477.053, 789.840 477.450, 789.500 478 M 783.750 480.662 C 784.438 480.940, 785.563 480.940, 786.250 480.662 C 786.938 480.385, 786.375 480.158, 785 480.158 C 783.625 480.158, 783.063 480.385, 783.750 480.662 M 747 482 C 745.813 482.767, 746.021 482.969, 748 482.969 C 749.375 482.969, 751.175 482.533, 752 482 C 753.187 481.233, 752.979 481.031, 751 481.031 C 749.625 481.031, 747.825 481.467, 747 482 M 776.500 482.791 C 773.089 483.204, 770.456 485.069, 773.550 484.882 C 777.198 484.660, 781.504 483.459, 780.500 482.943 C 779.950 482.660, 778.150 482.592, 776.500 482.791 M 519 485.500 C 519 486.325, 519.450 487, 520 487 C 520.550 487, 521 486.325, 521 485.500 C 521 484.675, 520.550 484, 520 484 C 519.450 484, 519 484.675, 519 485.500 M 742 485 C 742 485.550, 742.423 486, 742.941 486 C 743.459 486, 744.160 485.550, 744.500 485 C 744.840 484.450, 744.416 484, 743.559 484 C 742.702 484, 742 484.450, 742 485 M 535 487 C 535 487.550, 535.450 488, 536 488 C 536.550 488, 537 487.550, 537 487 C 537 486.450, 536.550 486, 536 486 C 535.450 486, 535 486.450, 535 487 M 766.442 486.906 C 766.750 487.404, 767.902 487.577, 769.001 487.289 C 771.753 486.570, 771.505 486, 768.441 486 C 767.034 486, 766.134 486.408, 766.442 486.906 M 749.813 492.683 C 750.534 492.972, 751.397 492.936, 751.729 492.604 C 752.061 492.272, 751.471 492.036, 750.417 492.079 C 749.252 492.127, 749.015 492.364, 749.813 492.683 M 533.079 494.583 C 533.127 495.748, 533.364 495.985, 533.683 495.188 C 533.972 494.466, 533.936 493.603, 533.604 493.271 C 533.272 492.939, 533.036 493.529, 533.079 494.583 M 740.750 494.796 C 738.688 494.974, 737 495.544, 737 496.060 C 737 497.234, 743.023 497.272, 744.857 496.110 C 746.744 494.914, 745.176 494.412, 740.750 494.796 M 532 500.559 C 532 502.010, 532.433 502.851, 533 502.500 C 533.550 502.160, 534 501.009, 534 499.941 C 534 498.873, 533.550 498, 533 498 C 532.450 498, 532 499.152, 532 500.559 M 730.896 503.750 C 730.345 507.707, 730.483 512, 731.161 512 C 731.622 512, 732 509.975, 732 507.500 C 732 505.025, 731.775 503, 731.500 503 C 731.225 503, 730.953 503.337, 730.896 503.750 M 529.697 509.393 C 529.288 510.434, 529.189 511.522, 529.476 511.810 C 530.389 512.722, 531.191 511.227, 530.809 509.328 C 530.459 507.588, 530.405 507.591, 529.697 509.393 M 667.750 508.716 C 666.237 508.945, 665 509.553, 665 510.066 C 665 510.580, 664.132 511, 663.071 511 C 662.011 511, 660.542 511.600, 659.809 512.334 C 659.075 513.068, 656.477 513.988, 654.037 514.378 C 651.596 514.768, 649.127 515.477, 648.550 515.954 C 647.972 516.430, 645.925 517.270, 644 517.820 L 640.500 518.820 644.128 518.910 C 646.229 518.962, 648.279 518.369, 649 517.500 C 649.702 516.654, 651.882 516, 654 516 C 656.118 516, 658.298 515.346, 659 514.500 C 659.685 513.675, 660.977 512.986, 661.872 512.968 C 662.768 512.951, 664.374 512.276, 665.441 511.468 C 666.509 510.661, 668.620 510, 670.132 510 C 671.645 510, 673.160 509.550, 673.500 509 C 674.119 507.998, 672.889 507.938, 667.750 508.716 M 697.813 510.683 C 698.534 510.972, 699.397 510.936, 699.729 510.604 C 700.061 510.272, 699.471 510.036, 698.417 510.079 C 697.252 510.127, 697.015 510.364, 697.813 510.683 M 665.491 520.015 C 664.470 521.667, 657.384 524.663, 654 524.875 C 652.900 524.944, 652 525.500, 652 526.111 C 652 527.428, 659.315 526.340, 659.823 524.948 C 660 524.461, 661.688 523.774, 663.573 523.420 C 665.458 523.067, 667 522.377, 667 521.889 C 667 521.400, 668.013 520.968, 669.250 520.930 C 670.487 520.891, 672.400 520.473, 673.500 520 C 675.010 519.351, 674.350 519.123, 670.809 519.070 C 668.229 519.032, 665.836 519.457, 665.491 520.015 M 635.500 521 L 633.500 521.859 635.500 521.914 C 636.600 521.945, 638.175 521.533, 639 521 C 640.333 520.138, 640.333 520.037, 639 520.086 C 638.175 520.116, 636.600 520.527, 635.500 521 M 626.500 524 C 623.732 524.704, 623.694 524.771, 626 524.866 C 627.375 524.923, 629.175 524.533, 630 524 C 631.702 522.900, 630.822 522.900, 626.500 524 M 618.500 527 C 618.160 527.550, 618.557 528, 619.382 528 C 620.207 528, 621.160 527.550, 621.500 527 C 621.840 526.450, 621.443 526, 620.618 526 C 619.793 526, 618.840 526.450, 618.500 527 M 646.750 528.662 C 647.438 528.940, 648.563 528.940, 649.250 528.662 C 649.938 528.385, 649.375 528.158, 648 528.158 C 646.625 528.158, 646.063 528.385, 646.750 528.662 M 610.269 530.693 C 611.242 530.947, 612.592 530.930, 613.269 530.656 C 613.946 530.382, 613.150 530.175, 611.500 530.195 C 609.850 530.215, 609.296 530.439, 610.269 530.693 M 638.813 531.683 C 639.534 531.972, 640.397 531.936, 640.729 531.604 C 641.061 531.272, 640.471 531.036, 639.417 531.079 C 638.252 531.127, 638.015 531.364, 638.813 531.683 M 601.813 533.683 C 602.534 533.972, 603.397 533.936, 603.729 533.604 C 604.061 533.272, 603.471 533.036, 602.417 533.079 C 601.252 533.127, 601.015 533.364, 601.813 533.683 M 575.813 542.683 C 576.534 542.972, 577.397 542.936, 577.729 542.604 C 578.061 542.272, 577.471 542.036, 576.417 542.079 C 575.252 542.127, 575.015 542.364, 575.813 542.683 M 568.813 545.683 C 569.534 545.972, 570.397 545.936, 570.729 545.604 C 571.061 545.272, 570.471 545.036, 569.417 545.079 C 568.252 545.127, 568.015 545.364, 568.813 545.683 M 558.750 548.662 C 559.438 548.940, 560.563 548.940, 561.250 548.662 C 561.938 548.385, 561.375 548.158, 560 548.158 C 558.625 548.158, 558.063 548.385, 558.750 548.662 M 586.507 549.989 C 586.157 550.555, 586.558 550.723, 587.448 550.382 C 589.180 549.717, 589.497 549, 588.059 549 C 587.541 549, 586.843 549.445, 586.507 549.989 M 504.079 552.583 C 504.127 553.748, 504.364 553.985, 504.683 553.188 C 504.972 552.466, 504.936 551.603, 504.604 551.271 C 504.272 550.939, 504.036 551.529, 504.079 552.583 M 719.252 555.500 C 719.263 557.700, 719.468 558.482, 719.707 557.238 C 719.946 555.994, 719.937 554.194, 719.687 553.238 C 719.437 552.282, 719.241 553.300, 719.252 555.500 M 528 560 C 526.718 560.828, 526.754 560.972, 528.250 560.985 C 529.212 560.993, 530 560.550, 530 560 C 530 558.780, 529.887 558.780, 528 560 M 702.079 560.583 C 702.127 561.748, 702.364 561.985, 702.683 561.188 C 702.972 560.466, 702.936 559.603, 702.604 559.271 C 702.272 558.939, 702.036 559.529, 702.079 560.583 M 716.252 568.500 C 716.263 570.700, 716.468 571.482, 716.707 570.238 C 716.946 568.994, 716.937 567.194, 716.687 566.238 C 716.437 565.282, 716.241 566.300, 716.252 568.500 M 538.750 567.662 C 539.438 567.940, 540.563 567.940, 541.250 567.662 C 541.938 567.385, 541.375 567.158, 540 567.158 C 538.625 567.158, 538.063 567.385, 538.750 567.662 M 699.638 570.500 C 699.322 571.325, 699.499 572, 700.031 572 C 700.564 572, 701 571.325, 701 570.500 C 701 569.675, 700.823 569, 700.607 569 C 700.391 569, 699.955 569.675, 699.638 570.500 M 469 581 C 467.859 581.738, 468.263 581.973, 470.691 581.985 C 472.446 581.993, 474.160 581.550, 474.500 581 C 475.292 579.718, 470.983 579.718, 469 581 M 461.750 584.662 C 462.438 584.940, 463.563 584.940, 464.250 584.662 C 464.938 584.385, 464.375 584.158, 463 584.158 C 461.625 584.158, 461.063 584.385, 461.750 584.662 M 491.813 585.683 C 492.534 585.972, 493.397 585.936, 493.729 585.604 C 494.061 585.272, 493.471 585.036, 492.417 585.079 C 491.252 585.127, 491.015 585.364, 491.813 585.683 M 503 600.946 C 495.620 605.718, 492.297 608.818, 489.570 613.472 C 486.655 618.445, 480.340 642.814, 476.994 662 C 474.406 676.839, 472.243 684.247, 470.653 683.719 C 469.037 683.182, 468.599 656.354, 470.096 649.655 C 471.591 642.966, 472.339 629.745, 471.528 624.337 C 470.114 614.912, 463.779 613.132, 460.504 621.241 C 457.766 628.021, 456.042 633.820, 453.739 644 C 449.668 661.993, 450.947 690.274, 456.429 703.500 C 457.113 705.150, 458.484 709.200, 459.476 712.500 C 460.468 715.800, 461.780 719.586, 462.390 720.913 C 463.949 724.303, 468.808 726.992, 473.382 726.996 C 476.540 726.999, 477.892 726.334, 480.630 723.431 C 482.482 721.467, 484.252 718.655, 484.564 717.181 C 484.876 715.706, 485.790 713.284, 486.594 711.798 C 487.886 709.411, 490.699 698.286, 492.992 686.500 C 493.419 684.300, 494.761 678.900, 495.974 674.500 C 497.186 670.100, 498.618 663.575, 499.156 660 C 499.693 656.425, 500.553 653.073, 501.067 652.550 C 501.580 652.028, 502.011 650.453, 502.024 649.050 C 502.046 646.664, 504.744 635.533, 506.987 628.580 C 508.406 624.179, 512 604.333, 512 600.896 C 512 597.033, 509.026 597.049, 503 600.946 M 507.543 601.931 C 506.860 603.036, 508.437 604.230, 509.361 603.306 C 510.311 602.355, 510.134 601, 509.059 601 C 508.541 601, 507.859 601.419, 507.543 601.931 M 389.750 611.662 C 390.438 611.940, 391.563 611.940, 392.250 611.662 C 392.938 611.385, 392.375 611.158, 391 611.158 C 389.625 611.158, 389.063 611.385, 389.750 611.662 M 689.710 614 C 689.423 615.100, 689.595 616, 690.094 616 C 690.592 616, 691 615.100, 691 614 C 691 612.900, 690.827 612, 690.617 612 C 690.406 612, 689.998 612.900, 689.710 614 M 402 619 C 402 620.253, 403.061 620.253, 405 619 C 406.213 618.216, 406.069 618.028, 404.250 618.015 C 403.012 618.007, 402 618.450, 402 619 M 388.813 624.683 C 389.534 624.972, 390.397 624.936, 390.729 624.604 C 391.061 624.272, 390.471 624.036, 389.417 624.079 C 388.252 624.127, 388.015 624.364, 388.813 624.683 M 346.507 628.989 C 346.157 629.555, 346.558 629.723, 347.448 629.382 C 349.180 628.717, 349.497 628, 348.059 628 C 347.541 628, 346.843 628.445, 346.507 628.989 M 456.030 649.450 C 456.008 651.601, 456.299 652.101, 457.104 651.296 C 457.895 650.505, 457.903 649.670, 457.134 648.346 C 456.193 646.728, 456.057 646.864, 456.030 649.450 M 292.507 649.989 C 292.157 650.555, 292.558 650.723, 293.448 650.382 C 295.180 649.717, 295.497 649, 294.059 649 C 293.541 649, 292.843 649.445, 292.507 649.989 M 464.232 660 C 464.232 661.925, 464.438 662.712, 464.689 661.750 C 464.941 660.788, 464.941 659.212, 464.689 658.250 C 464.438 657.288, 464.232 658.075, 464.232 660 M 453.446 660.087 C 453.077 660.685, 453.275 661.675, 453.887 662.287 C 454.704 663.104, 455 662.815, 455 661.200 C 455 658.785, 454.481 658.413, 453.446 660.087 M 453.015 672.250 C 453.028 674.069, 453.216 674.213, 454 673 C 455.253 671.061, 455.253 670, 454 670 C 453.450 670, 453.007 671.013, 453.015 672.250 M 171.531 701.386 C 171.030 702.498, 171.099 703.934, 171.698 704.886 C 172.888 706.776, 176 707.635, 176 706.073 C 176 705.483, 175.355 705, 174.566 705 C 173.760 705, 172.968 703.796, 172.757 702.250 C 172.427 699.841, 172.275 699.734, 171.531 701.386 M 181.813 705.683 C 182.534 705.972, 183.397 705.936, 183.729 705.604 C 184.061 705.272, 183.471 705.036, 182.417 705.079 C 181.252 705.127, 181.015 705.364, 181.813 705.683"
		stroke="#B85C38" stroke-width="20" stroke-linejoin="round" stroke-linecap="round" fill="#B85C38"
		fill-rule="evenodd" />
</svg>